<?xml version="1.0" standalone="no"?>
<!DOCTYPE svg PUBLIC "-//W3C//DTD SVG 20010904//EN"
 "http://www.w3.org/TR/2001/REC-SVG-20010904/DTD/svg10.dtd">
<svg version="1.0" xmlns="http://www.w3.org/2000/svg"
 width="400.000000pt" height="400.000000pt" viewBox="0 0 400.000000 400.000000"
 preserveAspectRatio="xMidYMid meet">
<metadata>
Created by potrace 1.11, written by Peter Selinger 2001-2013
</metadata>
<g transform="translate(0.000000,400.000000) scale(0.100000,-0.100000)"
fill="#000000" stroke="none">
<path d="M1880 3679 c-58 -26 -105 -72 -138 -134 -23 -43 -27 -62 -27 -135 0
-69 5 -93 23 -127 30 -56 84 -108 138 -130 l44 -18 0 -1412 0 -1413 75 0 75 0
0 888 c0 489 3 1126 7 1415 l6 527 32 10 c49 16 113 76 142 134 38 74 38 181
-1 260 -31 64 -91 118 -156 141 -62 22 -165 19 -220 -6z"/>
<path d="M254 2908 c-36 -17 -55 -79 -38 -123 4 -8 19 -22 34 -30 15 -8 234
-63 486 -124 580 -138 565 -135 605 -127 19 4 88 45 154 92 66 47 153 107 192
135 74 50 103 88 103 133 0 60 59 56 -764 55 -495 0 -758 -4 -772 -11z"/>
<path d="M2210 2871 c0 -63 19 -86 134 -163 50 -34 135 -95 189 -135 88 -65
103 -73 143 -73 44 0 1041 232 1075 251 48 25 53 97 10 140 l-29 29 -761 0
-761 0 0 -49z"/>
<path d="M2210 2490 l0 -150 206 0 c122 0 203 4 200 9 -5 8 -357 263 -393 284
-11 7 -13 -20 -13 -143z"/>
<path d="M1573 2492 c-106 -75 -192 -140 -193 -144 0 -5 90 -8 200 -8 l200 0
0 145 c0 80 -3 145 -7 144 -5 0 -94 -62 -200 -137z"/>
<path d="M128 2190 c-81 -24 -128 -94 -128 -190 0 -96 51 -172 132 -199 57
-18 1080 -224 1137 -229 32 -2 63 1 77 8 13 7 63 61 112 119 49 58 138 160
197 226 110 123 135 162 135 214 0 66 71 61 -824 60 -446 0 -823 -4 -838 -9z"/>
<path d="M2194 2183 c3 -10 11 -40 17 -67 13 -53 53 -105 277 -361 155 -177
165 -185 210 -185 67 0 1143 219 1191 243 70 35 104 85 109 161 2 35 -1 79 -7
98 -14 43 -75 102 -120 117 -24 8 -271 11 -858 11 -780 0 -824 -1 -819 -17z"/>
</g>
</svg>
