<?xml version="1.0" encoding="utf-8"?>
<!-- Generator: Adobe Illustrator 23.0.2, SVG Export Plug-In . SVG Version: 6.00 Build 0)  -->
<svg version="1.1" id="Layer_1" xmlns="http://www.w3.org/2000/svg" xmlns:xlink="http://www.w3.org/1999/xlink" x="0px" y="0px"
	 viewBox="0 0 50 50" style="enable-background:new 0 0 50 50;" xml:space="preserve">
<style type="text/css">
	.st0{fill:#006546;}
	.st1{fill:#FFFFFF;}
	.st2{fill:#FF6600;}
	.st3{fill:#FE000C;}
</style>
<g>
	<g>
		<g>
			<g>
				<g>
					<g>
						<rect x="1.5" y="0.7" class="st0" width="46.9" height="48.7"/>
						<path class="st1" d="M30.8,44.6v1.8H19.6v-1.8h-8.5c-0.8,0-1.5-0.9-1.5-1.9L6,6.6c0-1.1,0.8-1.9,1.9-1.9h34.4
							c1,0,1.9,0.9,1.9,1.9l-3.5,36c0,1.1-0.7,1.9-1.5,1.9L30.8,44.6z"/>
						<path class="st2" d="M12.3,9.9h23c-2.3,0.9-9.2,5.5-10.9,8.7H12.3L12.3,9.9z"/>
						<path class="st3" d="M30.6,34.7c-0.3,3.1-0.3,7-0.3,11h-10c0-4,0.2-7.8,0.5-11H30.6z"/>
						<polygon class="st0" points="11.5,27.5 15.2,27.5 15.2,29 13.6,29 13.6,30.2 15.2,30.2 15.2,31.4 13.6,31.4 13.6,32.6 
							15.2,32.6 15.2,34 11.5,34 						"/>
						<polygon class="st0" points="20,27.5 23.7,27.5 23.7,29 22.1,29 22.1,30.2 23.7,30.2 23.7,31.4 22.1,31.4 22.1,32.6 
							23.7,32.6 23.7,34 20,34 						"/>
						<polygon class="st0" points="29.4,27.5 33,27.5 33,29 31.4,29 31.4,30.2 33,30.2 33,31.4 31.4,31.4 31.4,32.6 33,32.6 33,34 
							29.4,34 						"/>
						<polygon class="st0" points="17.9,32.6 19.5,32.6 19.5,34 15.9,34 15.9,27.5 17.9,27.5 						"/>
						<polygon class="st0" points="24,27.5 25.1,34 27.7,34 28.9,27.5 27.4,27.5 26.6,31.9 25.8,27.5 						"/>
						<rect x="33.9" y="27.5" class="st0" width="2" height="6.5"/>
						<path class="st0" d="M35.9,29.5C36,28.8,37,29,37,29.4V34h2v-5.5c0-1.2-1.6-1.6-3.1-0.6"/>
						<path class="st3" d="M31.5,26.6c0.2-2.5,3.6-6.5,6.9-7.6V9.5c-9.1,4.1-15,10.2-16.2,17.2L31.5,26.6z"/>
						<path class="st0" d="M34.2,37.5c-0.3,0.3-0.6,0.4-0.9,0.4c-0.4,0-0.7-0.1-0.9-0.4c-0.3-0.3-0.4-0.6-0.4-0.9
							c0-0.4,0.1-0.7,0.4-0.9c0.3-0.3,0.6-0.4,0.9-0.4c0.4,0,0.7,0.1,0.9,0.4c0.3,0.3,0.4,0.6,0.4,0.9
							C34.6,36.9,34.4,37.2,34.2,37.5 M32.4,35.8c-0.2,0.2-0.3,0.5-0.3,0.8c0,0.3,0.1,0.6,0.3,0.8c0.2,0.2,0.5,0.3,0.8,0.3
							c0.3,0,0.6-0.1,0.8-0.3c0.2-0.2,0.3-0.5,0.3-0.8c0-0.3-0.1-0.6-0.3-0.8c-0.2-0.2-0.5-0.3-0.8-0.3
							C32.9,35.5,32.7,35.6,32.4,35.8 M33.2,35.9c0.2,0,0.3,0,0.4,0.1c0.1,0.1,0.2,0.2,0.2,0.4c0,0.1,0,0.2-0.1,0.3
							c0,0-0.1,0.1-0.2,0.1c0.1,0,0.2,0.1,0.2,0.1c0.1,0.1,0.1,0.1,0.1,0.2v0.1c0,0,0,0.1,0,0.1c0,0,0,0.1,0,0.1l0,0h-0.2
							c0,0,0,0,0,0c0,0,0,0,0,0l0,0v-0.1c0-0.2,0-0.3-0.1-0.3c-0.1,0-0.1,0-0.3,0H33v0.6h-0.3v-1.4H33.2z M33.5,36.1
							c-0.1,0-0.2-0.1-0.3-0.1H33v0.5h0.2c0.1,0,0.2,0,0.2,0c0.1,0,0.1-0.1,0.1-0.2C33.6,36.2,33.6,36.1,33.5,36.1"/>
					</g>
				</g>
			</g>
		</g>
	</g>
</g>
</svg>
