<?xml version="1.0" encoding="utf-8"?>
<!-- Generator: Adobe Illustrator 23.0.2, SVG Export Plug-In . SVG Version: 6.00 Build 0)  -->
<svg version="1.1" id="Layer_1" xmlns="http://www.w3.org/2000/svg" xmlns:xlink="http://www.w3.org/1999/xlink" x="0px" y="0px"
	 viewBox="0 0 50 50" style="enable-background:new 0 0 50 50;" xml:space="preserve">
<style type="text/css">
	.st0{fill:#FFFFFF;}
</style>
<g>
	<title>action_modify</title>
	<path class="st0" d="M25,47.8c-12.5,0-22.6-10.2-22.5-22.6S12.6,2.6,25.1,2.6c2.7,0,5.4,0.5,7.9,1.5l-1,2.7c-2.2-0.8-4.6-1.3-7-1.3
		c-10.8,0-19.6,8.9-19.6,19.7s8.9,19.6,19.7,19.6s19.6-8.9,19.6-19.7c0-2.6-0.6-5.2-1.6-7.6l2.7-1.1c4.9,11.5-0.6,24.7-12,29.6
		C31,47.1,28,47.8,25,47.8z"/>
	<path class="st0" d="M43.4,10.8c0,0.5-0.2,0.8-0.5,1.2c-0.1,0.1-0.2,0.2-0.3,0.3L25.9,29.2c-0.3,0.4-0.7,0.6-1.2,0.7
		c-1.7,0.5-3.4,1-5.1,1.6c-0.3,0.1-0.7,0.1-0.8-0.2c-0.2-0.2-0.3-0.6-0.1-0.8c0.6-1.8,1-3.5,1.6-5.3c0.1-0.4,0.3-0.7,0.6-0.8
		c5.6-5.8,11.3-11.5,17-17.2c0.7-0.7,1.9-0.8,2.6-0.1l0.1,0.1C41.3,8,42.2,8.9,43,9.7C43.3,10,43.5,10.5,43.4,10.8z"/>
</g>
</svg>
