<?xml version="1.0" encoding="utf-8"?>
<!-- Generator: Adobe Illustrator 23.0.2, SVG Export Plug-In . SVG Version: 6.00 Build 0)  -->
<svg version="1.1" id="Layer_1" xmlns="http://www.w3.org/2000/svg" xmlns:xlink="http://www.w3.org/1999/xlink" x="0px" y="0px"
	 viewBox="0 0 30 30" style="enable-background:new 0 0 30 30;" xml:space="preserve">
<style type="text/css">
	.st0{fill:#FFFFFF;}
</style>
<title>action_delete</title>
<path class="st0" d="M15,2.3C22,2.3,27.7,8,27.7,15S22,27.7,15,27.7S2.3,22,2.3,15l0,0C2.3,8,8,2.3,15,2.3 M15,0.6
	C7.1,0.6,0.6,7,0.6,15S7,29.4,15,29.4S29.4,23,29.4,15l0,0C29.4,7.1,23,0.6,15,0.6z"/>
<g>
	<path class="st0" d="M14.7,20.6c-0.5,0.5-1.1,1.1-1.6,1.6c-1.1,1.1-2.5,1.4-3.9,0.9c-1.5-0.5-2.5-2-2.4-3.5c0-1,0.3-1.8,1-2.6
		c1.1-1.1,2.2-2.2,3.3-3.3c0.2-0.2,0.5-0.2,0.7-0.1c0.2,0.1,0.4,0.4,0.3,0.7c0,0.1-0.1,0.2-0.2,0.3c-1,1-2.1,2.1-3.1,3.1
		c-0.7,0.8-1,1.7-0.6,2.7c0.6,1.6,2.7,2.2,4,1c1.2-1.1,2.3-2.3,3.4-3.4c0.9-0.9,0.9-2.4,0-3.3c-0.1-0.2-0.3-0.3-0.3-0.6
		c0-0.3,0.1-0.5,0.4-0.5c0.3-0.1,0.5-0.1,0.7,0.1c0.6,0.7,1,1.5,1.1,2.4c0.1,1.2-0.3,2.1-1.1,2.9C15.7,19.5,15.2,20.1,14.7,20.6z"/>
	<path class="st0" d="M15.3,9.4c0.6-0.6,1.1-1.2,1.7-1.7c1.3-1.3,3.5-1.3,4.9-0.1c1.4,1.2,1.7,3.3,0.7,4.9c-0.1,0.2-0.3,0.4-0.5,0.6
		c-1.1,1.1-2.1,2.2-3.2,3.2c-0.4,0.4-0.9,0.2-1.1-0.3c-0.1-0.2,0-0.4,0.1-0.5c0.1-0.1,0.1-0.1,0.2-0.2c1.1-1.1,2.1-2.1,3.2-3.2
		c0.9-0.9,0.8-2.4,0-3.3c-1-1-2.5-1.1-3.6-0.1c-1.1,1.1-2.2,2.1-3.2,3.2c-1,1-1,2.4-0.1,3.4c0,0.1,0.1,0.1,0.1,0.2
		c0.2,0.3,0.2,0.6-0.1,0.8c-0.2,0.2-0.6,0.2-0.8,0c-0.8-0.8-1.1-1.7-1.1-2.8c0-1,0.4-1.9,1.2-2.6C14.3,10.5,14.8,9.9,15.3,9.4
		C15.3,9.4,15.3,9.4,15.3,9.4z"/>
</g>
</svg>
