<?xml version="1.0" encoding="utf-8"?>
<!-- Generator: Adobe Illustrator 23.0.2, SVG Export Plug-In . SVG Version: 6.00 Build 0)  -->
<svg version="1.1" id="Layer_1" xmlns="http://www.w3.org/2000/svg" xmlns:xlink="http://www.w3.org/1999/xlink" x="0px" y="0px"
	 viewBox="0 0 30 30" style="enable-background:new 0 0 30 30;" xml:space="preserve">
<style type="text/css">
	.st0{fill:#FFFFFF;}
</style>
<title>action_publish</title>
<g>
	<path class="st0" d="M15,2.3C22,2.3,27.7,8,27.7,15c0,7-5.7,12.7-12.7,12.7C8,27.7,2.4,22,2.3,15c0,0,0,0,0,0C2.4,8,8,2.4,15,2.3
		 M15,0.6C7.1,0.6,0.6,7.1,0.6,15S7.1,29.4,15,29.4S29.4,22.9,29.4,15S22.9,0.6,15,0.6z"/>
	<path class="st0" d="M13.3,16.3l0.1-0.2l6.2-6.2c0.2-0.2,0.4-0.2,0.7,0l1.6,1.6c0.2,0.2,0.2,0.4,0,0.6l-8.2,8.2
		c-0.1,0.2-0.4,0.2-0.5,0.1c0,0-0.1-0.1-0.1-0.1l-4.8-4.9C8,15.4,8,15.2,8.1,15.1c0,0,0,0,0.1-0.1l1.6-1.7c0.1-0.2,0.3-0.2,0.5-0.1
		c0,0,0.1,0.1,0.1,0.1l2.8,2.8L13.3,16.3z"/>
</g>
</svg>
