<?xml version="1.0" encoding="utf-8"?>
<!-- Generator: Adobe Illustrator 23.0.2, SVG Export Plug-In . SVG Version: 6.00 Build 0)  -->
<svg version="1.1" id="Layer_1" xmlns="http://www.w3.org/2000/svg" xmlns:xlink="http://www.w3.org/1999/xlink" x="0px" y="0px"
	 viewBox="0 0 50 50" style="enable-background:new 0 0 50 50;" xml:space="preserve">
<style type="text/css">
	.st0{fill:#FFFFFF;}
</style>
<title>action_dash</title>
<path class="st0" d="M23.5,3c-4.8,0.3-9.4,2.2-13,5.3l5.1,5.1l-2,2l-5.1-5.1C5.2,14,3.3,18.7,3,23.5h7.3v3H3C3.2,30.6,4.6,34.6,7,38
	l-2.2,1.9c-8.2-11.1-5.8-26.8,5.3-35s26.8-5.8,35,5.3c6.5,8.8,6.5,20.9,0,29.7l-2.2-1.9c2.4-3.4,3.8-7.3,4.1-11.5h-7.2v-2.9H47
	c-0.3-4.8-2.2-9.4-5.3-13.1l-5.1,5.2l-2-2l5.1-5.2C36,5.2,31.4,3.3,26.5,3v7.3h-2.9V3z"/>
<path class="st0" d="M25,16.7c0.2,1.4,0.5,2.8,0.7,4.2c0.6,3.4,1.1,6.8,1.7,10.2c0,0.3,0.2,0.6,0.3,0.8c1.2,1.5,0.9,3.8-0.6,5
	c-1.5,1.2-3.8,0.9-5-0.6c-1-1.3-1-3.1,0-4.4c0.1-0.2,0.2-0.5,0.2-0.8c0.8-4.6,1.6-9.2,2.3-13.8c0-0.2,0.1-0.4,0.1-0.5L25,16.7z"/>
</svg>
