<?xml version="1.0" encoding="utf-8"?>
<!-- Generator: Adobe Illustrator 23.0.2, SVG Export Plug-In . SVG Version: 6.00 Build 0)  -->
<svg version="1.1" id="Layer_1" xmlns="http://www.w3.org/2000/svg" xmlns:xlink="http://www.w3.org/1999/xlink" x="0px" y="0px"
	 viewBox="0 0 30 30" style="enable-background:new 0 0 30 30;" xml:space="preserve">
<style type="text/css">
	.st0{fill:#FFFFFF;}
</style>
<g>
	<title>action_report</title>
	<path class="st0" d="M15,0.3C6.9,0.3,0.3,6.9,0.3,15S6.9,29.7,15,29.7S29.7,23.1,29.7,15S23.1,0.3,15,0.3z M26.8,9.5l-11.1,5.9V2.1
		C20.4,2.3,24.7,5.1,26.8,9.5z M15,28C7.8,28,2,22.2,2,15.1c0-6.7,5.1-12.3,11.7-13V17c0,0.5,0.4,1,1,1c0.2,0,0.3,0,0.5-0.1
		l12.4-6.5c2.1,6.9-1.9,14.1-8.7,16.2C17.6,27.8,16.3,28,15,28z"/>
</g>
</svg>
