<?xml version="1.0" encoding="utf-8"?>
<!-- Generator: Adobe Illustrator 23.0.2, SVG Export Plug-In . SVG Version: 6.00 Build 0)  -->
<svg version="1.1" id="Layer_1" xmlns="http://www.w3.org/2000/svg" xmlns:xlink="http://www.w3.org/1999/xlink" x="0px" y="0px"
	 viewBox="0 0 30 30" style="enable-background:new 0 0 30 30;" xml:space="preserve">
<style type="text/css">
	.st0{fill:#FFFFFF;}
</style>
<title>action_end</title>
<path class="st0" d="M19.4,9c0.2,0.2,0.3,0.4,0.5,0.5c0.3,0.3,0.6,0.7,1,1c0.1,0.1,0.1,0.2,0,0.3l-3.9,3.9c-0.1,0.1-0.1,0.1-0.2,0.2
	l4.4,4.3L19.3,21L15,16.7l-0.3,0.3c-1.3,1.3-2.6,2.6-3.9,3.9c-0.1,0.1-0.2,0.1-0.4,0C10,20.4,9.6,20,9.1,19.6
	C9.1,19.5,9,19.5,9,19.4l0.2-0.2l3.9-3.9c0.3-0.3,0.3-0.2,0-0.5c-1.3-1.3-2.6-2.6-3.9-3.9c-0.1-0.1-0.1-0.2,0-0.3
	c0.4-0.4,0.9-0.9,1.3-1.3c0.1-0.1,0.2-0.1,0.3,0l3.9,3.9c0.2,0.2,0.2,0.2,0.4,0l3.9-3.9L19.4,9z"/>
<path class="st0" d="M15,1.8c7.3,0,13.3,5.9,13.3,13.2c0,7.3-5.9,13.3-13.2,13.3C7.7,28.3,1.8,22.4,1.8,15c0,0,0,0,0,0
	C1.8,7.7,7.7,1.8,15,1.8 M15,0C6.7,0,0,6.7,0,15s6.7,15,15,15s15-6.7,15-15S23.3,0,15,0z"/>
</svg>
