<?xml version="1.0" encoding="utf-8"?>
<!-- Generator: Adobe Illustrator 23.0.3, SVG Export Plug-In . SVG Version: 6.00 Build 0)  -->
<svg version="1.1" id="Layer_1" xmlns="http://www.w3.org/2000/svg" xmlns:xlink="http://www.w3.org/1999/xlink" x="0px" y="0px"
	 viewBox="0 0 30 30" style="enable-background:new 0 0 30 30;" xml:space="preserve">
<style type="text/css">
	.st0{fill:#FFFFFF;}
</style>
<title>action_end</title>
<path class="st0" d="M15,1.8c7.3,0,13.3,5.9,13.3,13.2s-5.9,13.3-13.2,13.3C7.7,28.3,1.8,22.4,1.8,15l0,0C1.8,7.7,7.7,1.8,15,1.8
	 M15,0C6.7,0,0,6.7,0,15s6.7,15,15,15s15-6.7,15-15S23.3,0,15,0z"/>
<g>
	<path class="st0" d="M13.8,17.8V14c0.2,0.1,0.5,0.1,0.8,0.1c0.7,0,1.4-0.2,1.8-0.7c0.3-0.3,0.5-0.8,0.5-1.3s-0.2-0.9-0.4-1.1
		c-0.2-0.2-0.5-0.4-1-0.4c-0.6,0-0.9,0.2-1,0.3c-0.2,0.2-0.4,0.6-0.4,1.3h-2.5c0-1,0.4-2,1-2.6c0.5-0.5,1.4-1.1,3-1.1
		c1,0,2,0.2,2.8,1c0.5,0.5,1,1.4,1,2.7c0,1-0.3,1.8-1,2.5c-0.5,0.5-1.2,0.9-2.2,1.1v2H13.8z M15,19c0.8,0,1.5,0.7,1.5,1.5
		c0,0.8-0.7,1.5-1.5,1.5s-1.5-0.7-1.5-1.5C13.5,19.6,14.1,19,15,19z"/>
</g>
</svg>
