<?xml version="1.0" encoding="utf-8"?>
<!-- Generator: Adobe Illustrator 23.0.2, SVG Export Plug-In . SVG Version: 6.00 Build 0)  -->
<svg version="1.1" id="Layer_1" xmlns="http://www.w3.org/2000/svg" xmlns:xlink="http://www.w3.org/1999/xlink" x="0px" y="0px"
	 viewBox="0 0 30 30" style="enable-background:new 0 0 30 30;" xml:space="preserve">
<style type="text/css">
	.st0{fill:#FFFFFF;}
</style>
<title>action_delete</title>
<g>
	<path class="st0" d="M15,2.3C22,2.3,27.7,8,27.7,15S22,27.7,15,27.7S2.3,22,2.3,15l0,0C2.3,8,8,2.3,15,2.3 M15,0.6
		C7.1,0.6,0.6,7,0.6,15S7,29.4,15,29.4c8,0,14.4-6.4,14.4-14.4c0,0,0,0,0,0C29.4,7.1,23,0.6,15,0.6z"/>
	<path class="st0" d="M9.4,10.5h-1c-0.3,0-0.6-0.3-0.6-0.6c0-0.1,0-0.1,0-0.2c0.1-0.2,0.3-0.4,0.5-0.4c0.1,0,0.1,0,0.2,0h3.3V8.5
		c0-0.4,0.1-0.7,0.3-1c0.3-0.4,0.7-0.6,1.1-0.7c0.1,0,0.2,0,0.3,0c1,0,2,0,3.1,0c0.8,0,1.5,0.5,1.7,1.4c0,0.1,0,0.2,0,0.4v0.7h0.2
		h3.1c0.3,0,0.6,0.1,0.7,0.4c0.1,0.3-0.1,0.7-0.4,0.7c0,0-0.1,0-0.2,0c-0.3,0-0.6,0-0.9,0h-0.2c0,0.2,0,0.4,0,0.6l-0.3,5
		c-0.1,1.8-0.2,3.5-0.3,5.3c0,0.7-0.5,1.4-1.2,1.5c-0.2,0-0.3,0.1-0.5,0.1c-2.2,0-4.4,0-6.5,0c-0.9,0-1.7-0.7-1.7-1.6
		c-0.1-1.5-0.2-3-0.3-4.5L9.6,13c0-0.7-0.1-1.5-0.1-2.3C9.4,10.6,9.4,10.6,9.4,10.5z M10.7,10.5c0,0.2,0,0.5,0,0.7
		c0.1,1.3,0.1,2.6,0.2,3.9s0.1,2.7,0.2,4c0,0.7,0.1,1.4,0.1,2c0,0.4,0.3,0.7,0.7,0.7c0,0,0.1,0,0.1,0h5.8c0.4,0,0.8-0.3,0.8-0.7
		c0,0,0-0.1,0-0.1c0.1-0.8,0.1-1.6,0.1-2.4c0.1-1.3,0.1-2.6,0.2-3.9c0.1-1.1,0.1-2.2,0.2-3.3c0-0.3,0-0.5,0-0.8L10.7,10.5z M17,9.3
		V8.6c0-0.4-0.2-0.6-0.6-0.6h-2.9h-0.2c-0.2,0-0.3,0.2-0.4,0.3c0,0.3,0,0.6,0,0.8L17,9.3z"/>
	<path class="st0" d="M14.5,16.1c0-1.3,0-2.5,0-3.8c0-0.2,0.1-0.4,0.3-0.6c0.3-0.2,0.6-0.1,0.8,0.2c0,0.1,0.1,0.1,0.1,0.2
		c0,0.1,0,0.2,0,0.2v7.5c0,0.2,0,0.4-0.1,0.5c-0.1,0.2-0.4,0.2-0.6,0.2c-0.2-0.1-0.4-0.3-0.4-0.5c0-0.1,0-0.1,0-0.2L14.5,16.1z"/>
	<path class="st0" d="M16.6,16.1c0.1-1.3,0.1-2.5,0.2-3.8c0-0.3,0.2-0.6,0.6-0.6c0,0,0,0,0.1,0c0.3,0,0.5,0.3,0.5,0.6c0,0,0,0,0,0
		c0,0.8-0.1,1.7-0.1,2.5l-0.2,3.4c0,0.6-0.1,1.2-0.1,1.8c0,0.2-0.2,0.5-0.4,0.6c-0.2,0.1-0.4,0-0.6-0.1c-0.1-0.1-0.2-0.3-0.2-0.4
		c0.1-1,0.1-2.1,0.2-3.1C16.6,16.6,16.6,16.4,16.6,16.1L16.6,16.1z"/>
	<path class="st0" d="M13.4,16.2c0.1,1.3,0.1,2.5,0.2,3.8c0,0.3-0.1,0.5-0.4,0.6c-0.1,0-0.1,0-0.2,0c-0.3,0-0.5-0.3-0.5-0.5
		c0-0.8-0.1-1.6-0.1-2.4c-0.1-1.5-0.2-3-0.3-4.6c0-0.3,0-0.6,0-0.8c0-0.3,0.2-0.5,0.5-0.6c0.3,0,0.6,0.2,0.6,0.5c0,0.3,0,0.7,0.1,1
		C13.3,14.2,13.3,15.2,13.4,16.2L13.4,16.2z"/>
</g>
</svg>
