<?xml version="1.0" encoding="utf-8"?>
<!-- Generator: Adobe Illustrator 23.0.3, SVG Export Plug-In . SVG Version: 6.00 Build 0)  -->
<svg version="1.1" xmlns="http://www.w3.org/2000/svg" xmlns:xlink="http://www.w3.org/1999/xlink" x="0px" y="0px"
	 viewBox="0 0 30 30" style="enable-background:new 0 0 30 30;" xml:space="preserve">
<style type="text/css">
	.st0{fill:#FFFFFF;}
	.st1{display:none;}
</style>
<g id="Layer_1">
	<title>action_end</title>
	<path class="st0" d="M18.1,10.9c0.1,0.1,0.2,0.3,0.3,0.3c0.2,0.2,0.4,0.5,0.7,0.7c0.1,0.1,0.1,0.1,0,0.2l-2.7,2.7
		c-0.1,0.1-0.1,0.1-0.1,0.1l3,3L18,19.1l-3-3l-0.2,0.2c-0.9,0.9-1.8,1.8-2.7,2.7c-0.1,0.1-0.1,0.1-0.3,0c-0.3-0.3-0.6-0.6-0.9-0.9
		c0-0.1-0.1-0.1-0.1-0.1l0.1-0.1l2.7-2.7c0.2-0.2,0.2-0.1,0-0.3c-0.9-0.9-1.8-1.8-2.7-2.7C11,12.1,11,12,11,12
		c0.3-0.3,0.6-0.6,0.9-0.9c0.1-0.1,0.1-0.1,0.2,0l2.7,2.7c0.1,0.1,0.1,0.1,0.3,0l2.7-2.7L18.1,10.9z"/>
</g>
<g id="Layer_2" class="st1">
</g>
</svg>
