<?xml version="1.0" encoding="utf-8"?>
<!-- Generator: Adobe Illustrator 23.0.2, SVG Export Plug-In . SVG Version: 6.00 Build 0)  -->
<svg version="1.1" id="Layer_1" xmlns="http://www.w3.org/2000/svg" xmlns:xlink="http://www.w3.org/1999/xlink" x="0px" y="0px"
	 viewBox="0 0 30 30" style="enable-background:new 0 0 30 30;" xml:space="preserve">
<style type="text/css">
	.st0{fill:#FFFFFF;}
</style>
<g>
	<path class="st0" d="M0.6,26c0-3,0-6,0-9.1c0.9,0,1.8,0,2.7,0c0,2.1,0,4.2,0,6.4c7.8,0,15.6,0,23.4,0c0-2.1,0-4.2,0-6.4
		c0.9,0,1.8,0,2.7,0c0,3,0,6,0,9.1C19.8,26,10.2,26,0.6,26z"/>
	<path class="st0" d="M7.9,10.9c0.3-0.3,0.6-0.5,0.8-0.8c2-2,4-4,6-6c0.2-0.2,0.3-0.2,0.5,0c2.2,2.2,4.4,4.4,6.6,6.6
		c0.1,0.1,0.1,0.1,0.2,0.2c-0.1,0.1-0.1,0.1-0.2,0.2c-0.5,0.5-1,1-1.5,1.5c-0.2,0.2-0.3,0.1-0.4,0c-1.1-1.1-2.2-2.2-3.2-3.2
		c-0.1-0.1-0.2-0.1-0.3-0.3c0,0.2,0,0.3,0,0.5c0,4,0,7.9,0,11.9c0,0.3-0.1,0.3-0.3,0.3c-0.8,0-1.5,0-2.3,0c0-4.2,0-8.5,0-12.8
		c-0.1,0.1-0.2,0.2-0.3,0.3c-1.1,1.1-2.2,2.1-3.2,3.2c-0.2,0.2-0.3,0.2-0.5,0C9.1,12,8.5,11.5,7.9,10.9z"/>
</g>
</svg>
