<?xml version="1.0" encoding="utf-8"?>
<!-- Generator: Adobe Illustrator 23.0.2, SVG Export Plug-In . SVG Version: 6.00 Build 0)  -->
<svg version="1.1" id="Layer_1" xmlns="http://www.w3.org/2000/svg" xmlns:xlink="http://www.w3.org/1999/xlink" x="0px" y="0px"
	 viewBox="0 0 50 40.7" style="enable-background:new 0 0 50 40.7;" xml:space="preserve">
<style type="text/css">
	.st0{fill:#2BA8E0;}
	.st1{fill:url(#SVGID_1_);}
	.st2{fill:#18234C;}
	.st3{fill:url(#SVGID_2_);}
	.st4{fill:#17224B;stroke:#17224B;stroke-width:3.8456;stroke-linecap:round;stroke-linejoin:round;stroke-miterlimit:10;}
	.st5{fill:#FFFFFF;}
	.st6{fill:#B8E2F8;}
	.st7{fill:#0BB14E;}
	.st8{fill:#FDCE07;}
</style>
<path class="st0" d="M3.4,22.3C4.9,13.8,17.7-1,35,2.4c11.8,2.4,13.4,13.9,1.7,17.4C23.3,23.9,13.3,16.4,3.4,22.3z"/>
<linearGradient id="SVGID_1_" gradientUnits="userSpaceOnUse" x1="826.1263" y1="-1516.2993" x2="866.0718" y2="-1516.2993" gradientTransform="matrix(-1.0186 -3.000000e-02 -4.260000e-02 0.8199 821.5361 1280.8992)">
	<stop  offset="0.291" style="stop-color:#FFFFFF"/>
	<stop  offset="1" style="stop-color:#27265F"/>
</linearGradient>
<path class="st1" d="M3.4,22.3C4.9,13.8,17.7-1,35,2.4c11.8,2.4,13.4,13.9,1.7,17.4C23.3,23.9,13.3,16.4,3.4,22.3z"/>
<path class="st2" d="M1.5,24.9c5-11.6,18.3-24.4,34.8-19.1C47.5,9.4,47.6,21,35.8,23.3c-11.4,2.1-17.9,3.2-26.6,2.2
	C7.5,25.3,5,19.9,1.5,24.9z"/>
<path class="st0" d="M46.4,15c-1.5,8.8-14.3,24.1-31.6,20.5C3,33.1,1.4,21.2,13,17.6C26.4,13.4,36.4,21.1,46.4,15z"/>
<linearGradient id="SVGID_2_" gradientUnits="userSpaceOnUse" x1="-14.5336" y1="21.8716" x2="25.4105" y2="21.8716" gradientTransform="matrix(1.0186 3.000000e-02 4.260000e-02 -0.8199 19.0189 43.0502)">
	<stop  offset="0.291" style="stop-color:#FFFFFF"/>
	<stop  offset="1" style="stop-color:#27265F"/>
</linearGradient>
<path class="st3" d="M46.4,15c-1.5,8.8-14.3,24.1-31.6,20.5C3,33.1,1.4,21.2,13,17.6C26.4,13.4,36.4,21.1,46.4,15z"/>
<path class="st2" d="M48.3,12.3c-5.1,12-18.4,25.2-34.9,19.7C2.2,28.3,1.6,16.4,14,14.1C27.6,11.5,38.3,9.8,48.3,12.3z"/>
<path class="st2" d="M8.1,14.1L7,22.5l-1.4,1l-1.5-3.1L3.5,25l-1.6,1.2L3,17.8l1.5-1.1l1.4,3.1l0.6-4.6C6.5,15.2,8.1,14.1,8.1,14.1z
	"/>
<path class="st2" d="M0.8,28l1.4-10.6l2.5-1.9L5.4,17l0.3-2.3l3.4-2.5L7.7,22.9l-2.5,1.8l-0.8-1.6l-0.3,2.4L0.8,28z M4.4,19.2
	l1.5,3.1L6.2,22l0.2-1.6l-0.9,0.7L4.1,18l-0.4,0.3l-0.2,1.5C3.5,19.8,4.4,19.2,4.4,19.2z"/>
<path class="st2" d="M12.4,18.4l-0.1,1.3l-1.4,0.8V20h-0.1c-0.4,0.7-0.8,1.1-1.4,1.5c-1.1,0.6-1.6-0.1-1.6-1.3
	c0-2.3,1.2-4.6,3.3-5.8c0.4-0.2,1.2-0.5,2-0.6C13.1,13.8,12.4,18.4,12.4,18.4z M11.2,15.7c-0.1,0-0.3,0.1-0.5,0.2
	C9.8,16.3,9.5,18,9.5,19c0,0.5,0.1,0.9,0.6,0.7c0.3-0.2,0.6-0.6,0.7-1C10.8,18.7,11.2,15.7,11.2,15.7z"/>
<path class="st2" d="M8.6,22.4c-0.3,0-0.6-0.1-0.8-0.2C7.3,21.8,7,21.1,7,20.1c0-2.8,1.4-5.3,3.7-6.5c0.5-0.3,1.4-0.6,2.3-0.7l1-0.1
	l-0.8,5.6l-0.1,1.7l-2.4,1.3c-0.3,0.3-0.6,0.5-0.9,0.6C9.3,22.3,8.9,22.4,8.6,22.4z M8.7,18.9c-0.1,0.4-0.1,0.8-0.1,1.2
	c0,0.4,0.1,0.6,0.1,0.7c0.1,0,0.1,0,0.3-0.1c0.1-0.1,0.3-0.1,0.4-0.2H9.3C8.7,20,8.7,19.3,8.7,18.9C8.7,19,8.7,18.9,8.7,18.9z
	 M12.1,14.8c-0.1,0-0.2,0.1-0.2,0.1L12.1,14.8z"/>
<path class="st2" d="M14.7,18.8l-1.8,0.7l0.8-5v-1.1l1.4-0.6v0.8c0.4-0.9,1-1.4,1.4-1.5c0.3-0.1,0.6-0.2,0.9-0.1L17,13.7
	c-0.2,0-0.5,0-0.7,0.1c-0.5,0.2-0.8,0.6-0.9,1.2L14.7,18.8z"/>
<path class="st2" d="M11.9,20.7l1-6.4l0.1-1.6l2.6-1c0.2-0.2,0.5-0.4,0.8-0.5s0.9-0.3,1.4-0.1l0.8,0.2l-0.9,3.2L17,14.4h-0.3
	c-0.2,0.1-0.4,0.3-0.4,0.6l-0.7,4.2L11.9,20.7z M14.4,14.7l-0.5,3.5H14l0.5-3.1L14.4,14.7z"/>
<path class="st2" d="M21.6,15.3l-0.1,1.2L20,17v-0.5h-0.1c-0.4,0.6-0.9,1-1.6,1.2c-1.2,0.3-1.7-0.4-1.7-1.6c0-2.3,1.3-4.4,3.6-5.1
	c0.5-0.1,1.3-0.3,2.1-0.2C22.3,10.8,21.6,15.3,21.6,15.3z M20.4,12.3c-0.1,0-0.3,0-0.5,0.1c-1,0.3-1.4,2-1.4,2.9
	c0,0.5,0.1,1,0.7,0.8c0.4-0.1,0.6-0.4,0.8-0.9L20.4,12.3z"/>
<path class="st2" d="M17.8,18.6c-0.5,0-0.9-0.2-1.1-0.4c-0.4-0.3-0.9-0.9-0.9-2.2c0-2.8,1.6-5.1,4.2-5.8c0.6-0.2,1.5-0.3,2.5-0.2
	l0.8,0.1l-0.9,5.3l-0.1,1.8L19.5,18c-0.3,0.2-0.6,0.3-1,0.5C18.3,18.5,18,18.6,17.8,18.6z M17.8,14c-0.3,0.6-0.4,1.3-0.4,2
	c0,0.6,0.1,0.8,0.2,0.9s0.3,0.1,0.5,0c0.1,0,0.2-0.1,0.3-0.1c-0.1,0-0.1-0.1-0.2-0.1c-0.5-0.4-0.5-1-0.5-1.4S17.7,14.5,17.8,14z
	 M20.8,15.6V16l0.1-0.8l0.6-3.6H21l0.3,0.1l-0.6,3.7c0,0.1,0,0.1-0.1,0.2C20.6,15.6,20.8,15.6,20.8,15.6z"/>
<path class="st2" d="M22.1,16.5l0.8-4.8l0.1-1.2l1.6-0.3v0.6c0.4-0.6,1-1,1.8-1.1c1-0.2,1.5,0.2,1.5,1.1c0,0.2,0,0.4-0.1,0.6
	l-0.7,4.1l-1.9,0.3l0.6-3.5c0-0.2,0.1-0.5,0.1-0.7s-0.1-0.5-0.4-0.4c-0.5,0.1-0.8,0.5-0.9,1L24,16.1L22.1,16.5z"/>
<path class="st2" d="M21.2,17.4l1-5.9l0.1-1.8l3-0.5c0.3-0.2,0.7-0.3,1-0.4c0.8-0.1,1.4,0,1.8,0.4c0.3,0.2,0.6,0.7,0.6,1.6
	c0,0.3,0,0.6-0.1,0.8l-0.8,4.6l-3.6,0.6C24.2,16.8,21.2,17.4,21.2,17.4z M23.8,11.2v0.6l-0.6,3.7h0.2l0.5-3.1L23.8,11.2z M26.2,10.6
	c0.1,0,0.2,0.1,0.2,0.1c0.3,0.2,0.4,0.6,0.4,1c0,0.3-0.1,0.5-0.1,0.7v0.1l-0.4,2.4h0.2l0.6-3.5v-0.5c0-0.2-0.1-0.3-0.1-0.3
	s-0.2-0.1-0.5,0C26.4,10.5,26.3,10.6,26.2,10.6z"/>
<g>
	<path class="st2" d="M29,9.6l1.9-0.2l-1.1,6.2c-0.2,1.2-0.5,2.3-2.3,2.5c-0.6,0.1-1.3,0-1.8-0.3l0.7-1.4c0.2,0.1,0.5,0.2,0.7,0.1
		c0.4,0,0.6-0.3,0.7-0.9C27.8,15.6,29,9.6,29,9.6z M30.4,6.9c0.5-0.1,0.9,0.3,0.9,0.7c0,0.6-0.5,1.1-1.2,1.2
		c-0.6,0.1-0.9-0.2-0.9-0.7C29.2,7.5,29.7,7,30.4,6.9z"/>
	<path class="st2" d="M27.2,19c-0.6,0-1.3-0.1-1.8-0.4l-0.7-0.4l1.4-2.8l0.7,0.3c0.1,0.1,0.2,0.1,0.3,0.1c0-0.1,0-0.1,0.1-0.3
		l1.2-6.7h0.3c-0.1-0.2-0.2-0.5-0.2-0.8c0-1,0.8-1.9,1.9-2c0.5,0,0.9,0.1,1.3,0.4c0.3,0.3,0.5,0.7,0.5,1.1c0,0.3-0.1,0.7-0.3,0.9
		l-1.3,7.2c-0.2,1-0.5,2.9-3,3.2C27.5,19,27.3,19,27.2,19z M29.7,10.4l-1,5.5c-0.1,0.3-0.2,1.1-0.9,1.4c0.9-0.2,1-0.7,1.2-1.8
		l0.9-5.2C29.9,10.3,29.7,10.4,29.7,10.4z M30.5,7.7c-0.2,0-0.4,0.2-0.4,0.3C30.3,8,30.4,7.8,30.5,7.7z"/>
</g>
<g>
	<path class="st2" d="M35.8,13.9l-0.1,1.2l-1.6,0.1v-0.5H34c-0.4,0.5-0.9,0.7-1.6,0.8c-1.2,0-1.8-0.8-1.8-2.1c0-2.3,1.3-4.1,3.8-4.2
		c0.5,0,1.4,0.1,2.2,0.4C36.6,9.6,35.8,13.9,35.8,13.9z M34.5,10.6c-0.1-0.1-0.3-0.1-0.5-0.1c-1.1,0-1.4,1.6-1.4,2.5
		c0,0.5,0.1,1,0.7,1c0.4,0,0.7-0.3,0.8-0.7L34.5,10.6z"/>
	<path class="st2" d="M32.4,16.2c-0.7,0-1.3-0.2-1.7-0.7c-0.5-0.5-0.8-1.3-0.8-2.2c0-2.9,1.8-4.9,4.5-5c0.6,0,1.6,0.1,2.5,0.4
		l0.6,0.2l-0.9,5l-0.1,1.9l-3,0.1c-0.3,0.1-0.7,0.2-1,0.2C32.5,16.1,32.4,16.2,32.4,16.2z M32.3,10.8c-0.6,0.6-0.9,1.4-0.9,2.5
		c0,0.5,0.1,0.9,0.3,1.1c0.1,0.1,0.2,0.2,0.7,0.2c-0.1,0-0.1-0.1-0.2-0.1c-0.4-0.4-0.5-1-0.5-1.4C31.8,12.3,31.9,11.5,32.3,10.8z
		 M34.7,13.9h0.2v0.4H35v-0.6l0.7-3.6c-0.1,0-0.2-0.1-0.4-0.1h0.1l-0.6,3.5C34.8,13.7,34.7,13.8,34.7,13.9z"/>
</g>
<g>
	<path class="st2" d="M40.7,9.4l0.4-2L43,7.5l-1.2,6.6l-0.1,1.2H40v-0.5h-0.1c-0.4,0.4-0.9,0.7-1.5,0.6c-1.5-0.1-1.9-1.2-1.9-2.2
		c0-2.3,1.3-4,3.6-3.8C40.3,9.3,40.5,9.4,40.7,9.4z M40.4,10.8h-0.3c-1.2-0.1-1.7,1.2-1.7,2.3c0,0.6,0.2,1,0.6,1
		c0.5,0,0.8-0.3,0.8-0.6C39.8,13.5,40.4,10.8,40.4,10.8z"/>
	<path class="st2" d="M42.4,16.2l-3-0.2c-0.3,0.1-0.7,0.1-1,0.1c-1.6-0.1-2.7-1.3-2.7-3c0-1.5,0.5-2.8,1.4-3.6
		c0.8-0.7,1.8-1.1,2.9-1l0.3-1.9l3.5,0.2l-1.4,7.4V16.2z M38.8,10.3c-0.2,0.1-0.4,0.2-0.6,0.4c-0.6,0.5-0.9,1.4-0.9,2.4
		c0,1.1,0.6,1.4,0.9,1.4c-0.3-0.2-0.6-0.7-0.6-1.5c0-1.1,0.3-2,0.9-2.6C38.6,10.4,38.7,10.4,38.8,10.3z M40.8,14.6l0.1-0.5l1-5.7
		h-0.3l-0.3,1.8l-0.6,3.5c0,0.1-0.1,0.2-0.1,0.3h0.2C40.8,14,40.8,14.6,40.8,14.6z"/>
</g>
<g>
	<path class="st2" d="M47.5,14.9l-0.1,1.2l-1.6-0.2v-0.5h-0.1c-0.4,0.4-0.9,0.6-1.6,0.5c-1.2-0.2-1.8-1.1-1.8-2.4
		c0-2.3,1.3-3.9,3.7-3.6c0.5,0.1,1.3,0.3,2.2,0.7C48.2,10.6,47.5,14.9,47.5,14.9z M46.2,11.4c-0.1-0.1-0.3-0.1-0.5-0.2
		c-1-0.1-1.4,1.4-1.4,2.3c0,0.5,0.1,1,0.7,1.1c0.4,0,0.7-0.2,0.8-0.5C45.8,14.1,46.2,11.4,46.2,11.4z"/>
	<path class="st2" d="M48.2,17l-3.1-0.4c-0.3,0.1-0.7,0.1-1,0c-1.5-0.2-2.5-1.4-2.5-3.1c0-1.5,0.5-2.7,1.4-3.5c0.8-0.7,2-1,3.3-0.9
		c0.6,0.1,1.5,0.3,2.5,0.8l0.5,0.3l-1,4.8C48.3,15,48.2,17,48.2,17z M46.6,15.2l0.1-0.4l0.7-3.6c-0.1,0-0.2-0.1-0.3-0.1l-0.6,3.3
		c0,0.1-0.1,0.3-0.2,0.4l0.3,0.1C46.6,14.9,46.6,15.2,46.6,15.2z M44.3,11c-0.1,0.1-0.2,0.1-0.3,0.2c-0.5,0.5-0.8,1.3-0.8,2.3
		c0,0.8,0.3,1.3,0.8,1.5c-0.3-0.3-0.5-0.7-0.5-1.5C43.5,13.3,43.5,11.8,44.3,11z"/>
</g>
<g>
	<path class="st4" d="M13.3,23.5l0.1-0.1c0.1,0,0.1-0.1,0.1-0.1s0.1,0,0.1-0.1c0,0,0.1,0,0.1-0.1l0.3,1.1l0.6-1.6l0.1-0.1l0.1-0.1
		c0,0,0.1,0,0.1-0.1c0,0,0.1,0,0.1-0.1l-0.1,2.5l-0.1,0.1c0,0-0.1,0.1-0.2,0.1S14.4,25,14.3,25l0.1-1.5L14,24.7l-0.1,0.1
		c0,0-0.1,0-0.1,0.1h-0.1h-0.1l-0.2-0.8l-0.2,1.5c-0.1,0.1-0.2,0.1-0.3,0.2c-0.1,0-0.2,0.1-0.3,0.1C12.6,25.9,13.3,23.5,13.3,23.5z
		 M15.8,24.6c-0.1,0-0.2,0.1-0.3,0.1l0.2-2.6c0.1,0,0.1-0.1,0.2-0.1c0,0,0.1,0,0.1-0.1c0,0,0.1,0,0.1-0.1c0,0,0.1,0,0.2-0.1
		l-0.2,2.6C16,24.5,15.9,24.5,15.8,24.6z M16.7,21.6l0.1-0.1c0,0,0.1,0,0.1-0.1h0.2l0.7,1.1l0.1-1.4c0.1,0,0.1-0.1,0.2-0.1
		c0,0,0.1,0,0.1-0.1h0.2l-0.2,2.6c0,0-0.1,0-0.1,0.1c0,0-0.1,0-0.1,0.1h-0.1h-0.1l-0.7-1.1L17,24c-0.1,0.1-0.2,0.1-0.3,0.1
		c-0.1,0-0.2,0.1-0.3,0.1L16.7,21.6z M20.1,21.6c0,0.1,0,0.2-0.1,0.3l-0.7,0.2v0.5l0.9-0.3v0.3c0,0.1,0,0.2-0.1,0.3l-1.5,0.5
		l0.2-2.6l1.5-0.5v0.2c0,0.1,0,0.2-0.1,0.3l-0.8,0.3v0.4l0.7-0.2C20.1,21.3,20.1,21.6,20.1,21.6z M20.7,20.2c0.1,0,0.2-0.1,0.3-0.1
		c0.1,0,0.2-0.1,0.3-0.1c0.1,0,0.3-0.1,0.4-0.1H22c0.1,0,0.2,0.1,0.2,0.2c0.1,0.1,0.1,0.2,0.1,0.4v0.2c0,0.1-0.1,0.1-0.1,0.2
		s-0.1,0.1-0.1,0.2S22,21.2,22,21.2l0.5,1c-0.1,0-0.1,0-0.2,0.1c-0.1,0-0.1,0-0.2,0.1h-0.4l-0.4-1.1l0.1-0.1l0.1-0.1
		c0-0.1,0.1-0.1,0.1-0.2v-0.2c0-0.1,0-0.2-0.1-0.2h-0.2h-0.1L21,22.6c-0.1,0.1-0.2,0.1-0.3,0.1h-0.3C20.4,22.7,20.7,20.2,20.7,20.2z
		 M23.1,22.2h-0.2h-0.1h-0.3l1-2.7h0.7l0.6,2.4c-0.1,0-0.3,0.1-0.4,0.1h-0.1h-0.2L24,21.5c-0.1,0-0.1,0.1-0.2,0.1h-0.6L23.1,22.2z
		 M23.8,20.2l-0.3,1h0.4L23.8,20.2z M25.2,19.3h0.6l-0.2,2l0.8-0.1v0.6L25,21.9C25,21.9,25.2,19.3,25.2,19.3z M27.1,21.7h-0.3
		l0.2-2.6h0.6l-0.2,2.6H27.1z M29.5,21.3c0,0.1,0,0.2-0.1,0.3l-1.7,0.1l-0.1-0.1l1.2-2h-0.9v-0.1v-0.1v-0.1v-0.2l1.8-0.1v0.1l-1.1,2
		h0.9C29.5,21.1,29.5,21.3,29.5,21.3z M30.3,21.6h-0.2H30h-0.3l1-2.6h0.7l0.6,2.6h-0.4h-0.1h-0.2l-0.1-0.5h-0.8L30.3,21.6z M31,19.7
		l-0.3,0.9h0.4L31,19.7z M33.1,19c0.5,0,0.8,0.2,1,0.4c0.2,0.2,0.3,0.6,0.3,1c0,0.5-0.2,0.8-0.4,1c-0.3,0.2-0.6,0.3-1.1,0.2h-0.3
		c-0.1,0-0.2,0-0.3-0.1l0.2-2.6H33C33,19,33.1,19,33.1,19z M32.9,21.1C32.9,21.1,32.9,21.2,32.9,21.1h0.4c0.1,0,0.2-0.1,0.2-0.1
		l0.2-0.2c0-0.1,0.1-0.2,0.1-0.4V20c0-0.1-0.1-0.2-0.1-0.3c-0.1-0.1-0.1-0.1-0.2-0.1s-0.2-0.1-0.2-0.1h-0.1
		C33.2,19.5,32.9,21.1,32.9,21.1z M35,21.9h-0.2h-0.1h-0.1c-0.1,0-0.1,0-0.2-0.1l1-2.5h0.7l0.6,2.7h-0.4h-0.1H36l-0.1-0.5h-0.6
		c-0.1,0-0.1,0-0.2-0.1L35,21.9z M35.7,20l-0.3,0.9h0.4C35.8,20.9,35.7,20,35.7,20z"/>
	<g>
		<path class="st5" d="M13.2,23.5l0.1-0.1c0.1,0,0.1-0.1,0.1-0.1s0.1,0,0.1-0.1c0,0,0.1,0,0.1-0.1l0.3,1.1l0.6-1.6l0.1-0.1l0.1-0.1
			c0,0,0.1,0,0.1-0.1c0,0,0.1,0,0.1-0.1l-0.1,2.5l-0.1,0.1c0,0-0.1,0.1-0.2,0.1S14.3,25,14.2,25l0.1-1.5l-0.4,1.2l-0.1,0.1
			c0,0-0.1,0-0.1,0.1h-0.1h-0.1l-0.2-0.8l-0.2,1.5c-0.1,0.1-0.2,0.1-0.3,0.2c-0.1,0-0.2,0.1-0.3,0.1C12.5,25.9,13.2,23.5,13.2,23.5z
			 M15.8,24.6c-0.1,0-0.2,0.1-0.3,0.1l0.2-2.6c0.1,0,0.1-0.1,0.2-0.1l0.1-0.1c0,0,0.1,0,0.1-0.1c0,0,0.1,0,0.2-0.1l-0.2,2.6
			C16.1,24.3,15.8,24.6,15.8,24.6z M16.7,21.7l0.1-0.1c0,0,0.1,0,0.1-0.1h0.2l0.7,1.1l0.1-1.4c0.1,0,0.1-0.1,0.2-0.1
			c0,0,0.1,0,0.1-0.1h0.2l-0.2,2.6c0,0-0.1,0-0.1,0.1c0,0-0.1,0-0.1,0.1h-0.1h-0.1l-0.7-1.1L17,24c-0.1,0.1-0.2,0.1-0.3,0.1
			c-0.1,0-0.2,0.1-0.3,0.1L16.7,21.7z M20.1,21.6c0,0.1,0,0.2-0.1,0.3l-0.7,0.2v0.5l0.9-0.3v0.3c0,0.1,0,0.2-0.1,0.3l-1.5,0.5
			l0.2-2.6l1.4-0.5v0.2c0,0.1,0,0.2-0.1,0.3l-0.8,0.3v0.4l0.7-0.2C20.1,21.4,20.1,21.5,20.1,21.6z M20.7,20.2c0.1,0,0.2-0.1,0.3-0.1
			c0.1,0,0.2-0.1,0.3-0.1c0.1,0,0.3-0.1,0.4-0.1H22c0.1,0,0.2,0.1,0.2,0.2c0.1,0.1,0.1,0.2,0.1,0.4v0.2c0,0.1-0.1,0.1-0.1,0.2
			s-0.1,0.1-0.1,0.2S22,21.2,22,21.2l0.5,1c-0.1,0-0.1,0-0.2,0.1c-0.1,0-0.1,0-0.2,0.1h-0.4l-0.4-1.1l0.1-0.1l0.1-0.1
			c0-0.1,0.1-0.1,0.1-0.2v-0.2c0-0.1,0-0.2-0.1-0.2h-0.2h-0.1L21,22.6c-0.1,0.1-0.2,0.1-0.3,0.1h-0.3C20.4,22.7,20.7,20.2,20.7,20.2
			z"/>
		<path class="st5" d="M23,22.2h-0.2h-0.1h-0.3l1-2.7h0.7l0.6,2.4c-0.1,0-0.3,0.1-0.4,0.1h-0.1H24l-0.1-0.5c-0.1,0-0.1,0.1-0.2,0.1
			h-0.6L23,22.2z M23.7,20.2l-0.3,1h0.4L23.7,20.2z M25.1,19.3h0.6l-0.2,2l0.8-0.1v0.6L24.8,22C24.8,22,25.1,19.3,25.1,19.3z
			 M27,21.7h-0.3l0.2-2.6h0.6l-0.2,2.6H27z M29.5,21.3c0,0.1,0,0.2-0.1,0.3l-1.7,0.1l-0.1-0.1l1.2-2h-0.9v-0.1v-0.1v-0.1v-0.2
			l1.8-0.1v0.1l-1.1,2h0.9C29.5,21.1,29.5,21.3,29.5,21.3z M30.3,21.6h-0.2H30h-0.3l1-2.6h0.7l0.6,2.6h-0.4h-0.1h-0.2l-0.1-0.5h-0.8
			L30.3,21.6z M30.9,19.7l-0.3,0.9H31L30.9,19.7z M33.1,19c0.5,0,0.8,0.2,1,0.4c0.2,0.2,0.3,0.6,0.3,1c0,0.5-0.2,0.8-0.4,1
			c-0.3,0.2-0.6,0.3-1.1,0.2h-0.3c-0.1,0-0.2,0-0.3-0.1l0.2-2.6H33C32.9,19,33,19,33.1,19z M32.8,21.1
			C32.8,21.1,32.9,21.1,32.8,21.1h0.4c0.1,0,0.2-0.1,0.2-0.1l0.2-0.2c0-0.1,0.1-0.2,0.1-0.4V20c0-0.1-0.1-0.2-0.1-0.3
			c-0.1-0.1-0.1-0.1-0.2-0.1s-0.2-0.1-0.2-0.1h-0.1C33.1,19.5,32.8,21.1,32.8,21.1z M35,21.9h-0.2h-0.1h-0.1c-0.1,0-0.1,0-0.2-0.1
			l1-2.5h0.7l0.6,2.7h-0.4h-0.1H36l-0.1-0.5h-0.6c-0.1,0-0.1,0-0.2-0.1L35,21.9z M35.6,20l-0.3,0.9h0.4C35.7,20.9,35.6,20,35.6,20z"
			/>
	</g>
</g>
<g>
	<path class="st6" d="M15.2,33.6h1.3l0.1-0.3h-1.3L15.2,33.6z"/>
	<path class="st2" d="M35.4,26.4c-0.1-0.2-0.3-0.3-0.5-0.3H34c-0.4,0-0.7,0.2-1,0.6l-0.5,0.7c-0.3-0.4-0.8-0.6-1.3-0.6h-1h-0.1h-2
		c-0.4,0-0.8,0.2-1,0.5c0-0.1-0.1-0.2-0.1-0.3c0.3-0.4,0.4-0.8,0.4-0.9c0-0.3-0.1-0.4-0.2-0.5s-0.3-0.2-0.5-0.2h-0.2h-0.7
		c0-0.3,0-0.6-0.2-0.9l-0.3-0.6c-0.1-0.1-0.1-0.2-0.1-0.2c-0.2-0.3-0.5-0.4-0.6-0.4c-0.2,0-0.5,0.1-0.6,0.4
		c-0.1,0.1-0.3,0.6-0.5,0.8c-0.1,0.3-0.2,0.6-0.2,0.9h-0.6h-0.3c-0.2,0-0.4,0.1-0.5,0.3c0.1,0,0.1,0.2,0.1,0.4
		c0,0.1,0.1,0.5,0.4,0.8c-0.1-0.1-0.2-0.1-0.4-0.1h-1.2c-0.2,0-0.3,0.1-0.4,0.2s-0.1,0.2-0.2,0.3c-0.2-0.3-0.6-0.4-0.9-0.4H19v-0.1
		c0-0.3-0.3-0.6-0.6-0.6h-1.3c-0.2,0-0.3,0.1-0.4,0.2s-0.2,0.3-0.2,0.4v3.1c-0.2-0.3-0.6-0.5-1-0.5h-0.4c-0.3,0-0.6,0.3-0.6,0.6v0.8
		c0,0.4,0.1,0.7,0.3,1c0.4,0.5,1.1,0.9,1.8,0.9c0.7,0,1.4-0.3,1.9-0.8c0.4,0.5,1.1,0.8,1.8,0.8c0.4,0,0.9-0.1,1.3-0.3
		c0.1,0.1,0.3,0.2,0.4,0.2h0.3c0.5,0,1-0.4,1.1-1v-0.2l0.2,0.6c0.1,0.3,0.4,0.6,0.8,0.6c0.3,0,0.7-0.2,0.8-0.5l0.2-0.6
		c0.2,0.6,0.8,1.1,1.5,1.1h0.4c0.1,0,0.2,0,0.3-0.1c0.1,0.1,0.3,0.1,0.4,0.1h3c0.4,0,0.7-0.2,0.9-0.5l0.2-0.4l0.1,0.1
		c0.3,0.5,0.8,0.8,1.3,0.8h1c0.2,0,0.4-0.1,0.5-0.3s0.1-0.4,0-0.6l-1.5-2.3l1.6-2.3C35.5,26.8,35.5,26.6,35.4,26.4L35.4,26.4z"/>
	<path class="st5" d="M18.4,28.5v-1.9h-1.3v4.3c0,0.2-0.3,0.3-0.5,0.3s-0.4-0.1-0.4-0.3v-0.3c0-0.4-0.3-0.7-0.8-0.7H15v0.7
		c0,0.3,0.1,0.5,0.2,0.7c0.3,0.4,0.8,0.6,1.4,0.6c0.8,0,1.7-0.5,1.7-1.3C18.3,30.6,18.4,28.5,18.4,28.5z M33.5,29.8l-0.4-0.5
		l1.1-1.6l0.4-0.6l0.3-0.5H34c-0.2,0-0.4,0.1-0.5,0.3l-1,1.5l-0.4-0.7c-0.2-0.3-0.5-0.4-0.8-0.4h-1l0.2,0.3l1,1.6l0.2,0.3L31,30.7
		l-0.4,0.6l-0.3,0.5h0.9c0.2,0,0.4-0.1,0.4-0.2l0.7-1.1l0.6,0.8c0.2,0.3,0.5,0.5,0.9,0.5h1l-0.2-0.3C34.6,31.5,33.5,29.8,33.5,29.8z
		 M27.4,31.6l-0.3-1.9L26.8,28l-0.1-0.4l-0.1-0.4H26c-0.3,0-0.6,0.2-0.7,0.5l-0.5,1.5c0,0,0,0.1-0.1,0.1h-0.1L24,27.8
		c-0.1-0.3-0.4-0.5-0.7-0.5h-0.6l-0.1,0.4l-0.1,0.5l-0.4,2.5l-0.2,1v0.1h0.3c0.3,0,0.5-0.2,0.5-0.5l0.4-2c0,0,0-0.1,0.1-0.1
		c0,0,0.1,0,0.1,0.1l0.9,2.3c0,0.1,0.1,0.2,0.2,0.2s0.2-0.1,0.2-0.2l0.8-2.4c0,0,0-0.1,0.1-0.1c0,0,0.1,0,0.1,0.1l0.3,1.6
		c0.1,0.5,0.5,0.9,1,0.9C26.9,31.7,27.4,31.6,27.4,31.6z M29,27.9h1.2v-0.6h-1.9c-0.4,0-0.7,0.3-0.7,0.7v3.2c0,0.1,0,0.2,0.1,0.3
		c0.1,0.2,0.3,0.4,0.6,0.4h1.9v-0.6H29c-0.1,0-0.2-0.1-0.2-0.2v-1c0-0.1,0.1-0.1,0.1-0.1h0.8c0.3,0,0.5-0.2,0.5-0.5v-0.1H29
		c-0.1,0-0.1-0.1-0.1-0.1v-1C28.8,28,28.9,27.9,29,27.9z"/>
	<path class="st5" d="M22,28v-0.8h-1.1v3.7c0,0.2-0.2,0.3-0.4,0.3s-0.4-0.1-0.4-0.3v-2.8c0-0.4-0.3-0.7-0.7-0.7h-0.5v3.4
		c0,0.8,0.8,1.3,1.6,1.3s1.6-0.5,1.6-1.3V28H22z"/>
	<path class="st7" d="M26.8,25.8c-0.5,0.1-0.6-0.1-1.1,0c-0.3,0-0.5,0.3-0.7,0.6c-0.1,0.1-0.1,0.3-0.2,0.3c0-0.2,0.1-0.6,0.4-0.9
		c0.2-0.2,0.3-0.8,0.1-1.2c-0.1-0.3-0.4-0.7-0.5-0.8c-0.1-0.1-0.1,0-0.1,0s-0.3,0.6-0.5,0.8c-0.2,0.4-0.1,0.9,0.1,1.2
		c0.3,0.4,0.3,0.7,0.4,0.9c-0.1-0.1-0.1-0.3-0.2-0.4c-0.1-0.3-0.4-0.5-0.7-0.5c-0.5-0.1-0.8,0.1-1.1,0c-0.2-0.1-0.1,0.1-0.1,0.1
		s0,0.4,0.5,0.8c0.6,0.4,1.1,0.2,1.3,0.2c0.1,0,0.3,0.1,0.3,0.2v0.5c0,0.2,0.1,0.1,0.1,0v-0.5c0-0.2,0.2-0.2,0.3-0.2
		c0.2,0,0.6,0.3,1.3-0.2c0.5-0.3,0.5-0.8,0.5-0.8C27,25.8,26.9,25.8,26.8,25.8z M24.4,26.6c-0.3-0.2-0.6-0.3-0.7-0.3
		c-0.4-0.1-0.5-0.1-0.6-0.2s0-0.1,0,0c0.2,0.1,0.2,0.1,0.6,0.1C24.1,26.3,24.3,26.5,24.4,26.6C24.4,26.7,24.4,26.7,24.4,26.6z
		 M24.8,26c0,0-0.1-0.4-0.1-0.8c0-0.5,0-0.8,0.1-0.8c0,0,0.1,0.4,0.1,0.8C24.8,25.6,24.8,26,24.8,26z M26.5,26.2
		c-0.1,0.1-0.2,0.2-0.6,0.2c-0.2,0-0.5,0-0.7,0.3c0,0-0.1,0,0,0c0-0.1,0.3-0.3,0.8-0.4C26.2,26.2,26.3,26.2,26.5,26.2
		C26.5,26.1,26.5,26.1,26.5,26.2z"/>
	<path class="st2" d="M38.2,33.7c0,0.4-0.3,0.7-0.7,0.7s-0.7-0.3-0.7-0.7s0.3-0.7,0.7-0.7S38.2,33.3,38.2,33.7z M23.6,33.3h1.2v2.4
		h-1.2V33.3z"/>
	<path class="st2" d="M38.2,32.1c-0.1-0.1-0.2-0.2-0.4-0.3c0-0.1,0-0.1,0.1-0.2c0.1-0.3,0-0.5-0.1-0.7l-0.3-0.3
		c0.1-0.1,0.1-0.2,0.1-0.3c0-0.2,0-0.4-0.1-0.5c-0.1-0.2-0.2-0.3-0.4-0.3H37c-0.3,0-0.6,0.2-0.7,0.5c0,0.2,0,0.4,0.1,0.5l0.1,0.1
		C36.2,30.7,36,31,36,31.2v0.5c-0.3,0-0.6,0.2-0.9,0.4h-0.5c-0.4,0-0.8,0.1-1.2,0.3l0.1-0.2h-9.8c-1.1,0-1.4,0.7-1.4,1l-0.3,2
		c-0.1,0.5-0.2,0.5-0.3,0.5v-0.3l0.4-2c0.1-0.3,0-0.6-0.1-0.7c-0.2-0.3-0.7-0.4-0.9-0.4h-0.7L20.1,33c-0.1-0.1-0.1-0.2-0.2-0.3
		c-0.3-0.3-0.7-0.4-1.5-0.4h-4.5l-0.7,3.8c0,0.1-0.1,0.6,0.1,0.9c0.1,0.2,0.4,0.4,1,0.4h0.5l0.3-1.7h0.8l-0.3,1.7h0.9
		c0.7,0,1-0.4,1.1-0.7l1.7,2.6c0,0,0.6,0.8,1.5,0.8c0.3,0,0.6-0.1,0.9-0.3c0.2-0.1,0.2-0.3,0.2-0.4c0-0.1-0.1-0.3-0.4-0.4
		c-0.1,0-0.4-0.3-0.6-0.5l-1.7-2.7c0.2-0.1,0.3-0.2,0.4-0.3c-0.1,0.6,0,1,0.3,1.4c0.4,0.6,1.2,0.6,1.5,0.6c0.6,0,1.1-0.2,1.6-0.6
		c0.4-0.4,0.7-0.8,0.8-1.6L24,34h0.3L24,36.2c0,0.1-0.1,0.5,0.2,0.8c0.1,0.2,0.4,0.4,0.8,0.4h8.1c0.2,0,0.4,0.1,0.6,0.1
		c1.5,0,2.8-1.2,3.1-2.6c0-0.3,0.1-0.5,0-0.8c0.2-0.2,0.4-0.4,0.5-0.7v-0.2h0.2c0.3,0,0.6-0.2,0.7-0.5
		C38.3,32.4,38.3,32.2,38.2,32.1z"/>
	<path class="st5" d="M13.7,36.1l0.6-3.5h2.4l-0.2,1h-1.3l-0.1,0.7h1.3l-0.2,1h-1.3L14.6,37h-0.2C13.5,37,13.7,36.1,13.7,36.1z
		 M16.7,36.9h-0.4l0.8-4.3h1.4c0.8,0,1,0.1,1.3,0.3c0.3,0.3,0.4,0.7,0.3,1.2s-0.5,1.2-1.3,1.4l2,3.2c0,0,0.6,0.7,1,0.7h0.1
		c-1.2,0.6-2-0.4-2-0.4l-2.2-3.5l-0.2,0.8C17.5,36.4,17.5,36.9,16.7,36.9z M17.8,34.8h0.4c0.7,0,0.8-0.4,0.8-0.6
		c0.1-0.4-0.2-0.6-0.6-0.6H18C18,33.6,17.8,34.8,17.8,34.8z M21.7,33.2l-0.4,2c-0.1,0.3-0.1,0.8,0.4,0.8c0.6,0,0.6-0.5,0.7-0.8
		l0.4-2c0,0,0-0.7,1-0.7H24l-0.5,2.6c-0.1,0.7-0.3,1.1-0.7,1.3c-0.3,0.3-0.8,0.5-1.3,0.5c-0.3,0-0.9-0.1-1.2-0.5
		C20,36,20,35.7,20.1,35.1l0.5-2.6h0.3C21,32.6,21.9,32.5,21.7,33.2z M24.5,36.2l0.5-2.7h-0.8l0.2-1H27l-0.2,1h-0.7l-0.6,3.4h-0.4
		C24.3,36.9,24.5,36.2,24.5,36.2z M26.1,36.2l2-2.7h-1l0.2-1h2.2l-0.2,0.9l-1.8,2.5h1.2l-0.7,1h-2.1C25.9,36.9,26.1,36.2,26.1,36.2z
		 M32.1,36.5c-0.2-0.2-0.3-0.4-0.4-0.6h-1.5l1.8-2.5l0.7-0.9h-2.9l-0.2,1h1.1l-2.5,3.4h4.1C32.4,36.8,32.2,36.6,32.1,36.5z M37,30.3
		c0.1,0,0.3-0.1,0.3-0.2s-0.1-0.3-0.2-0.3s-0.3,0.1-0.3,0.2C36.7,30.2,36.8,30.3,37,30.3z M36.4,32c-0.4-0.1-0.8,0.1-1,0.5
		c-0.2-0.1-0.4-0.1-0.7-0.1c-1.2,0-2,0.8-2.4,1.4c-0.2,0.3-0.3,0.6-0.3,0.9c-0.2,1.1,0.5,2.2,1.9,2.2c1.3,0,2.5-1.1,2.7-2.3
		c0.1-0.3,0-0.6,0-0.9c0.3-0.1,0.4-0.3,0.5-0.6C37.2,32.6,36.9,32.1,36.4,32z M35.5,34.7c-0.1,0.6-0.6,1.3-1.4,1.3
		c-0.7,0-1.1-0.6-1-1.3c0.1-0.6,0.6-1.3,1.4-1.3C35.3,33.4,35.6,34.1,35.5,34.7z M37.1,30.8c-0.3-0.1-0.6,0.1-0.7,0.4
		c-0.1,0.3,0.1,0.6,0.4,0.7c0.3,0.1,0.6-0.1,0.7-0.4C37.6,31.2,37.4,30.9,37.1,30.8z M37.8,32.1c-0.1,0-0.3,0.1-0.3,0.2
		s0.1,0.3,0.2,0.3s0.3-0.1,0.3-0.2S37.9,32.2,37.8,32.1z"/>
	<path class="st6" d="M25.4,36.7c-0.8,0-0.6-0.7-0.6-0.7l0.5-2.7h-0.8l0.1-0.7h-0.2l-0.2,1H25l-0.5,2.7c0,0-0.2,0.7,0.6,0.7h0.4
		L25.4,36.7C25.5,36.8,25.4,36.7,25.4,36.7z M22.3,35.7c0.3-0.1,0.4-0.5,0.4-0.8l0.4-2c0,0,0-0.1,0.1-0.3c-0.3,0.2-0.3,0.5-0.3,0.5
		l-0.4,2C22.5,35.4,22.4,35.5,22.3,35.7z M26.9,33.3h-0.8v0.2h0.7L26.9,33.3z M36.7,31.8c0.1,0,0.2,0.1,0.3,0.1
		c0.2,0,0.5-0.1,0.6-0.3c-0.1,0.1-0.2,0.1-0.4,0c-0.3-0.1-0.5-0.4-0.4-0.7v-0.1c-0.1,0.1-0.3,0.2-0.3,0.4
		C36.4,31.4,36.5,31.6,36.7,31.8z M35.2,35.4c0.3-0.3,0.5-0.7,0.6-1c0.1-0.6-0.2-1.3-0.9-1.3c-0.5,0-0.8,0.2-1.1,0.6
		c0.2-0.2,0.5-0.3,0.8-0.3c0.8,0,1.1,0.7,0.9,1.3C35.5,34.9,35.3,35.2,35.2,35.4z"/>
	<path class="st6" d="M34.2,36.7c-1.4,0-2.1-1.1-1.9-2.2l0.3-0.9c0.1-0.1,0.2-0.3,0.3-0.4c-0.3,0.2-0.4,0.5-0.6,0.7
		c-0.2,0.3-0.3,0.6-0.3,0.9c-0.1,0.5,0,1,0.3,1.4c0,0,0,0.1,0.1,0.1c0.1,0.1,0.2,0.2,0.4,0.3c0.3,0.2,0.7,0.3,1.2,0.3
		c0.8,0,1.6-0.4,2.1-1C35.5,36.4,34.8,36.7,34.2,36.7z M29,36.6h-0.4l2.5-3.4H30l0.1-0.7h-0.2l-0.2,1h1.1l-2.5,3.4h4.1
		c-0.1-0.1-0.2-0.2-0.3-0.2C32.1,36.7,29,36.6,29,36.6z M26.2,36.6l0.2-0.7l1.9-2.6h-0.9l0.1-0.8h-0.2l-0.2,1h1l-2,2.7L26,36.9h2
		l0.2-0.3L26.2,36.6z M37.9,32.4c-0.1,0-0.2-0.1-0.2-0.3c-0.1,0-0.2,0.1-0.2,0.2s0.1,0.3,0.2,0.3C37.8,32.7,37.9,32.6,37.9,32.4
		C38,32.4,38,32.4,37.9,32.4C38,32.4,37.9,32.4,37.9,32.4z M21.9,36.7c-0.3,0-0.9-0.1-1.2-0.5c-0.3-0.4-0.3-0.7-0.2-1.3l0.4-2.4
		h-0.2l-0.5,2.6c-0.1,0.6-0.1,0.9,0.2,1.3c0.3,0.4,0.8,0.5,1.2,0.5c0.5,0,1-0.2,1.3-0.5l0.2-0.2C22.8,36.6,22.4,36.7,21.9,36.7z"/>
	<path class="st5" d="M37.5,33.7L37.5,33.7L37.5,33.7c0.1-0.1,0.2-0.1,0.2,0C37.7,33.7,37.5,33.7,37.5,33.7z M37.5,33.8l0.2,0.2h0.1
		l-0.1-0.2c0.1,0,0.1,0,0.1-0.1s-0.1-0.2-0.2-0.2h-0.2V34h0.1C37.5,34,37.5,33.8,37.5,33.8z M38,33.7c0-0.3-0.2-0.5-0.5-0.5
		c-0.2,0-0.5,0.2-0.5,0.5s0.2,0.5,0.5,0.5S38,34,38,33.7z M37.9,33.7c0,0.2-0.2,0.4-0.3,0.4c-0.2,0-0.3-0.1-0.3-0.4
		c0-0.2,0.1-0.4,0.3-0.4C37.7,33.3,37.9,33.5,37.9,33.7z"/>
	<path class="st6" d="M15.2,33.6h1.3l0.1-0.3h-1.3L15.2,33.6z M15,35.1l-0.1,0.2h1.3v-0.2H15z M14,35.9l0.6-3.2h-0.2l-0.6,3.5
		c0,0-0.3,0.9,0.7,0.9h0.2v-0.3C13.7,36.7,14,35.9,14,35.9z M21.8,39.3h-0.2c-0.9,0.2-1.5-0.6-1.5-0.6l-2.5-3.4v0.2l2.3,3.5
		C19.9,39,20.7,40,21.8,39.3C21.9,39.4,21.8,39.3,21.8,39.3z M17,36.7h-0.4l0.7-4.1h-0.2L16.3,37h0.4c0.4,0,0.6-0.2,0.7-0.3
		C17.4,36.7,17,36.7,17,36.7z"/>
</g>
<g>
	<path class="st8" d="M8.1,13.9L7,22.2l-1.4,1l-1.5-3.1l-0.6,4.6L1.9,26L3,17.6l1.5-1.1l1.4,3.1L6.5,15L8.1,13.9z M12.4,18.2
		l-0.1,1.3l-1.4,0.8v-0.5h-0.1c-0.4,0.7-0.8,1.1-1.4,1.5c-1.1,0.6-1.6-0.1-1.6-1.3c0-2.3,1.2-4.6,3.3-5.8c0.4-0.2,1.2-0.5,2-0.6
		L12.4,18.2z M11.2,15.4c-0.1,0-0.3,0.1-0.5,0.2c-0.9,0.5-1.3,2.2-1.3,3.2c0,0.5,0.1,0.9,0.6,0.7c0.3-0.2,0.6-0.6,0.7-1
		C10.7,18.5,11.2,15.4,11.2,15.4z M14.7,18.5l-1.8,0.7l0.8-5v-1.1l1.4-0.6v0.8c0.4-0.9,1-1.4,1.4-1.5c0.3-0.1,0.6-0.2,0.9-0.1
		L17,13.4c-0.2,0-0.5,0-0.7,0.1c-0.5,0.2-0.8,0.6-0.9,1.2L14.7,18.5z"/>
	<path class="st8" d="M21.6,15.1l-0.1,1.2L20,16.8v-0.5h-0.1c-0.4,0.6-0.9,1-1.6,1.2c-1.2,0.3-1.7-0.4-1.7-1.6
		c0-2.3,1.3-4.4,3.6-5.1c0.5-0.1,1.3-0.3,2.1-0.2C22.3,10.6,21.6,15.1,21.6,15.1z M20.4,12.1c-0.1,0-0.3,0-0.5,0.1
		c-1,0.3-1.4,2-1.4,2.9c0,0.5,0.1,1,0.7,0.8c0.4-0.1,0.6-0.4,0.8-0.9L20.4,12.1z M22.1,16.2l0.8-4.8l0.1-1.2l1.6-0.3v0.6
		c0.4-0.6,1-1,1.8-1.1c1-0.2,1.5,0.2,1.5,1.1c0,0.2,0,0.4-0.1,0.6l-0.7,4.1l-1.9,0.3l0.6-3.5c0-0.2,0.1-0.5,0.1-0.7
		s-0.1-0.5-0.4-0.4c-0.5,0.1-0.8,0.5-0.9,1l-0.6,4L22.1,16.2z"/>
	<path class="st8" d="M29,9.4l1.9-0.2l-1.1,6.2c-0.2,1.2-0.5,2.3-2.3,2.5c-0.6,0.1-1.3,0-1.8-0.3l0.7-1.4c0.2,0.1,0.5,0.2,0.7,0.1
		c0.4,0,0.6-0.3,0.7-0.9C27.8,15.4,29,9.4,29,9.4z M30.4,6.6c0.5-0.1,0.9,0.3,0.9,0.7c0,0.6-0.5,1.1-1.2,1.2
		c-0.6,0.1-0.9-0.2-0.9-0.7S29.7,6.7,30.4,6.6z M35.8,13.6l-0.1,1.2l-1.6,0.1v-0.5H34c-0.4,0.5-0.9,0.7-1.6,0.8
		c-1.2,0-1.8-0.8-1.8-2.1c0-2.3,1.3-4.1,3.8-4.2c0.5,0,1.4,0.1,2.2,0.4C36.6,9.3,35.8,13.6,35.8,13.6z M34.5,10.3
		c-0.1-0.1-0.3-0.1-0.5-0.1c-1.1,0-1.4,1.6-1.4,2.5c0,0.5,0.1,1,0.7,1c0.4,0,0.7-0.3,0.8-0.7L34.5,10.3z M40.7,9.2l0.4-2L43,7.3
		l-1.2,6.6l-0.1,1.2H40v-0.5h-0.1c-0.4,0.4-0.9,0.7-1.5,0.6c-1.5-0.1-1.9-1.2-1.9-2.2c0-2.3,1.3-4,3.6-3.8
		C40.3,9.1,40.5,9.1,40.7,9.2z M40.4,10.5h-0.3c-1.2-0.1-1.7,1.2-1.7,2.3c0,0.6,0.2,1,0.6,1c0.5,0,0.8-0.3,0.8-0.6
		C39.8,13.2,40.4,10.5,40.4,10.5z M47.5,14.7l-0.1,1.2l-1.6-0.2v-0.5h-0.1c-0.4,0.4-0.9,0.6-1.6,0.5c-1.2-0.2-1.8-1.1-1.8-2.4
		c0-2.3,1.3-3.9,3.7-3.6c0.5,0.1,1.3,0.3,2.2,0.7C48.2,10.4,47.5,14.7,47.5,14.7z M46.2,11.2c-0.1-0.1-0.3-0.1-0.5-0.2
		c-1-0.1-1.4,1.4-1.4,2.3c0,0.5,0.1,1,0.7,1.1c0.4,0,0.7-0.2,0.8-0.5C45.8,13.9,46.2,11.2,46.2,11.2z"/>
</g>
</svg>
