<svg id="Layer_1" xmlns="http://www.w3.org/2000/svg" viewBox="0 0 400 400"><style>.st2{fill:#fff}</style><path d="M120.5 297.7c5.7-14.3 44.1-111.2 44.1-111.2l-25.3 9.7 41.5-63.1 105.3-34.9-28.2 34 35.3-12.3-172.7 177.8" fill="#231f20"/><path fill="#ee3e42" d="M184.2 137.8l78.4-26-28.5 34.3 30.9-10.6L139.3 265l35.8-90.2-20.3 7.8 29.4-44.8"/><path class="st2" d="M243.6 180.9l-64.3 65.9h59.8v50.6c-13.7 5.8-22.7 7.9-36.9 7.9-23.1 0-44-7.3-60.3-20l-38.3 38.2 21.3-54.8c-12.8-17.7-21.3-42.7-21.3-68.3 0-55.9 38-97 90.2-97 13 0 24.9 1.9 36.5 6.2l74-24.1-26.1 32.7 39.7-14.2-25.8 26.5-3.2 3.3h35.3V15.4h-55.8v17.5C246.1 24.3 221.5 20 194.3 20 83 20 2.9 97.6 2.9 206.2c0 105.5 77 178.8 187.7 178.8 52.2 0 99.1-14.2 139.7-42.2V180.9h-86.7z"/><path fill="#fbaf33" d="M147.5 244.4l99.6-102.7-28 9.5 28.5-34.4-63.4 21-21.5 32.7 16.6-6.2z"/><path class="st2" d="M342.1 41.6c0-3.6.9-7.2 2.1-10.1 1.2-3.3 3.3-6 5.7-8.6 2.4-2.4 5.3-4.5 8.6-5.7 3.3-1.2 6.5-2.1 10.1-2.1s7.2.9 10.5 2.1 6 3.3 8.6 5.7c2.4 2.4 4.5 5.3 5.7 8.6s2.1 6.5 2.1 10.1-.9 7.2-2.1 10.1c-1.2 3.3-3.3 6-5.7 8.6-2.4 2.4-5.3 4.5-8.6 5.7s-6.9 2.1-10.5 2.1-6.9-.9-10.1-2.1c-3.3-1.2-6-3.3-8.6-5.7-2.4-2.4-4.5-5.3-5.7-8.6-1.2-3.2-2.1-6.5-2.1-10.1zm3.6 0c0 3.3.3 6 1.5 8.9s2.9 5.3 4.8 7.2c2.1 2.1 4.5 3.6 7.2 4.8 2.9 1.2 5.7 1.5 8.9 1.5 3.3 0 6-.3 8.9-1.5s5.3-2.9 7.2-4.8c2.1-2.1 3.6-4.5 4.8-7.2 1.2-2.9 1.5-5.7 1.5-8.9s-.3-6-1.5-8.9-2.9-5.3-4.8-7.2c-1.9-1.9-4.5-3.6-7.2-4.8-2.7-1.2-5.7-1.5-8.9-1.5-3.3 0-6 .3-8.9 1.5s-5.3 2.9-7.2 4.8c-1.9 1.9-3.6 4.5-4.8 7.2-1 2.4-1.5 5.6-1.5 8.9zM357 55.3V52h3.3V29H357v-3.3h11c2.1 0 4.1.3 5.7.9 1.5.3 2.9 1.2 3.6 2.1.9.9 1.5 1.5 2.4 2.9.3 1.2.9 2.4.9 3.6 0 2.1-.9 3.6-2.1 5.3-1.2 1.5-3.3 2.4-5.7 2.9l7.2 9.3h4.1v2.9h-5.7l-9.3-12.2h-4.8v8.9h4.1v3.3l-11.4-.3zm19.4-20.2c0-2.1-.9-3.3-2.1-4.1-1.2-.9-3.3-1.2-5.7-1.2h-5.3v11h5.3c2.4 0 4.1-.3 5.3-1.5 2.1-1.3 2.5-2.5 2.5-4.2z"/></svg>