<svg xmlns="http://www.w3.org/2000/svg" viewBox="0 0 50 50"><path d="M48.6 25C48.6 38.1 38 48.6 25 48.6 11.9 48.6 1.4 38.1 1.4 25 1.4 11.9 11.9 1.4 25 1.4c13.1 0 23.6 10.5 23.6 23.6" fill="#fff"/><path d="M25 46.4c11.8 0 21.4-9.6 21.4-21.4 0-4.1-1.2-8-3.2-11.3.4 1.3.5 2.6.5 4 0 5-2.5 9.4-6.2 12.1-6.5 4.8-15.9 4.8-28.9 8.9 3.9 4.7 9.8 7.7 16.4 7.7" fill="#004a98"/><path d="M37.7 7.8c-3.6-2.6-8-4.2-12.7-4.2C13.2 3.6 3.6 13.2 3.6 25c0 4 1.1 7.8 3.1 11 14.7-4 26.6-13.8 31-28.2" fill="#ea0029"/></svg>