<svg id="Layer_1" xmlns="http://www.w3.org/2000/svg" viewBox="0 0 50 50"><style>.st0{fill:#225d38}.st3{fill:#fff}</style><path class="st0" d="M32.1 3.5c-1.9.7-3.2 1.3-9 2.3-4.9.9-8.3.9-11.6 1.7C10 8 8.7 9 8.3 11.1 8 12 7.1 16.7 7 17.3c-.1.7.5.8.7.6 3.1-3 5.8-3.4 9.9-3.8 2.5-.3 5.7-.6 7.1-1.5-2.2 2.5-6.6 9.4-9.3 14.8-3.2 6.6-5.4 12-5.9 17.9-.1 1 .7 1.4 1.1 1.2 3.6-2.2 7.4-3.6 11-4.7-.6-1.1-.6-4.2.4-9 .5-2.6 1.4-5.9 2.6-8.8 1.8-4.4 3.5-8.1 6.3-13.1 1.3-2.4 2-4.4 2.3-6.4-.2-1.1-.8-1.1-1.1-1"/><path d="M31.9 2.9c-1.9.7-2.3 2.7-8.1 3.7-4.8.8-8.3.8-11.6 1.7-1.5.4-4 .7-4.5 2.8-.2 1-1 5.2-1.2 5.8-.4 1 .4 3 1.8 1.7 3.3-2.9 5.8-3.4 9.9-3.8 2.5-.3 5.7-.6 7.1-1.5-2.2 2.5-6.6 9.4-9.3 14.8-3.2 6.6-6.5 10.9-7 16.7-.1 1 1 3 2.1 2.3 3.6-2.1 7.4-3.6 11-4.7-.6-1.1-.6-4.2.4-9 .5-2.6 1.4-5.9 2.6-8.8 1.8-4.4 3.5-8.1 6.3-13.1 1.3-2.4 2-4.5 2.3-6.4.3-1.6-1.5-2.3-1.8-2.2z" fill="#225d38" stroke="#225d38" stroke-width="2.5" stroke-linecap="round" stroke-linejoin="round" stroke-miterlimit="10"/><path d="M31.7 2.9c-1.9.7-3.2 1.3-9 2.3-4.8.9-8.2.9-11.6 1.8-1.5.4-2.8 1.4-3.3 3.5-.2 1-1.2 5.6-1.3 6.2-.1.7.5.8.7.6 3.1-3 5.8-3.4 9.9-3.8 2.5-.3 5.7-.6 7.1-1.5-2.2 2.5-6.6 9.4-9.3 14.8-3.2 6.6-5.4 12-5.9 17.9-.1 1 .7 1.4 1.1 1.2 3.6-2.2 7.4-3.6 11-4.7-.6-1.1-.6-4.2.4-9 .5-2.6 1.4-5.9 2.6-8.8 1.7-4.4 3.5-8.1 6.3-13.1 1.3-2.4 2-4.4 2.3-6.4-.1-1.1-.7-1.1-1-1" fill="none" stroke="#225d38" stroke-width="2.5" stroke-linejoin="round" stroke-miterlimit="10"/><path class="st3" d="M31.7 2.9c-1.9.7-3.2 1.3-9 2.3-4.8.9-8.2.9-11.6 1.8-1.5.4-2.8 1.4-3.3 3.5-.2 1-1.2 5.6-1.3 6.2-.1.7.5.8.7.6 3.1-3 5.8-3.4 9.9-3.8 2.5-.3 5.7-.6 7.1-1.5-2.2 2.5-6.6 9.4-9.3 14.8-3.2 6.6-5.4 12-5.9 17.9-.1 1 .7 1.4 1.1 1.2 3.6-2.2 7.4-3.6 11-4.7-.6-1.1-.6-4.2.4-9 .5-2.6 1.4-5.9 2.6-8.8 1.7-4.4 3.5-8.1 6.3-13.1 1.3-2.4 2-4.4 2.3-6.4-.1-1.1-.7-1.1-1-1"/><path d="M33 15.5c-5.8 0-10.5 4.7-10.5 10.5S27.2 36.5 33 36.5 43.5 31.8 43.5 26 38.8 15.5 33 15.5" fill="#ea0029"/><path class="st3" d="M33 20.7l-2.7.6s.1.2 0 .5c0 .3-1.4 8-1.4 8-.3.2-1.5.6-1.3-.5 0 0 1.2-7 1.3-7.2 0-.2-.1-.4-.1-.4l-2.8.4s.1.4 0 .7c0 .2-1.1 6.2-1.2 6.8-.2 1.9.9 2.6 2.6 2.2 0 0 1.1-.3 1.6-.8 0 0 0 .4.2.4.1 0 2.1-.5 2.1-.5l.6-3.1c.3-1.5 1.1-6.5 1.2-6.7.1-.3-.1-.4-.1-.4M40 19.8c-.4-.2-1-.3-1.7-.2-.4.1-1.3.6-1.3.6 0-.1-.2-.3-.3-.3l-2.4.5s.2.2.1.5c0 .1-1.3 7.4-2.1 11.8-.3.4-.3.7-.3.7-.1.4-.2.6-.2.6l2.8-.5s.1-.1.2-.5c0-.1.5-2.7.5-2.7l1-.2c2.6-.5 3.5-1.8 3.8-3.7.1-.5.6-3.9.7-4.4.1-1-.1-1.8-.8-2.2m-1.9 2.7l-.8 4.5c-.1.7-.4 1.1-1.4 1.3-.2 0-.3.1-.3.1l1.2-6.8h.2c1-.3 1.2.3 1.1.9"/><g><path class="st0" d="M43.6 35.1c0 .8-.6 1.4-1.4 1.4-.8 0-1.4-.6-1.4-1.4 0-.8.6-1.4 1.4-1.4.7.1 1.4.7 1.4 1.4zm-2.5 0c0 .6.5 1.1 1.1 1.1.6 0 1-.5 1-1.1 0-.6-.4-1.1-1.1-1.1s-1 .5-1 1.1zm.8.7h-.3v-1.4h.5c.3 0 .4 0 .5.1.1.1.1.2.1.3 0 .2-.1.3-.3.3l.3.3c0 .2.1.3.1.3h-.3c0-.1-.1-.2-.1-.3 0-.2-.1-.2-.3-.2h-.2v.6zm0-.7h.2c.2 0 .3-.1.3-.2s-.1-.2-.3-.2h-.2v.4z"/></g></svg>