<svg xmlns="http://www.w3.org/2000/svg" viewBox="0 0 64.44 54.54"><defs><style>.cls-1{fill:#fff;}</style></defs><title>dragonf-ic</title><g id="Layer_2" data-name="Layer 2"><g id="assets_login"><path class="cls-1" d="M35.42,24.25c.61-.05.85-.08,1.09-.08q12.18,0,24.35,0a3.27,3.27,0,0,1,.93,6.47q-9.06,1.85-18.14,3.61a1.42,1.42,0,0,1-1.13-.4c-2.15-2.4-4.3-4.81-6.36-7.31A7.26,7.26,0,0,1,35.42,24.25Z"/><path class="cls-1" d="M28.59,24.17A2.69,2.69,0,0,1,27.93,27c-1.93,2.09-3.8,4.25-5.63,6.44a1.86,1.86,0,0,1-2.09.76C14.52,33,8.8,31.86,3.09,30.7A3.46,3.46,0,0,1,.41,28.94,3.15,3.15,0,0,1,3.1,24.2c2-.08,4.05,0,6.08,0H28.59Z"/><path class="cls-1" d="M35.78,12.57H59.24c.87,0,1.57.35,1.7,1.29s-.52,1.4-1.36,1.6l-8.44,2c-2.41.57-4.82,1.13-7.23,1.72a2.16,2.16,0,0,1-2-.4c-1.68-1.28-3.38-2.53-5.15-3.67A2,2,0,0,1,35.78,12.57Z"/><path class="cls-1" d="M28.63,12.71a1.93,1.93,0,0,1-1,2.43c-1.81,1.17-3.5,2.51-5.29,3.7a2.45,2.45,0,0,1-1.68.35C15.42,18,10.16,16.68,4.89,15.43c-.83-.2-1.53-.48-1.42-1.51a1.46,1.46,0,0,1,1.65-1.34c7.75,0,15.49,0,23.23,0C28.43,12.6,28.5,12.66,28.63,12.71Z"/><path class="cls-1" d="M36.75,4.76a4.57,4.57,0,1,0-9.13-.18A4.48,4.48,0,0,0,31,9c0,6,0,31,0,44.37,0,.38.06.77.09,1.15h2.22V53.2c0-13.31,0-38.3,0-44.2A4.4,4.4,0,0,0,36.75,4.76Z"/><path class="cls-1" d="M42.13,21.78H35.72V17.2Z"/><path class="cls-1" d="M28.65,17.23v4.55H22.3Z"/></g></g></svg>