<?xml version="1.0" encoding="utf-8"?>
<!-- Generator: Adobe Illustrator 23.0.3, SVG Export Plug-In . SVG Version: 6.00 Build 0)  -->
<svg version="1.1" id="Layer_1" xmlns="http://www.w3.org/2000/svg" xmlns:xlink="http://www.w3.org/1999/xlink" x="0px" y="0px"
	 viewBox="0 0 428.9 38.2" style="enable-background:new 0 0 428.9 38.2;" xml:space="preserve">
<style type="text/css">
	.st0{fill:#FFFFFF;}
</style>
<title>dragonf-title</title>
<g>
	<path class="st0" d="M2.6,1.4h10.9c9.9,0,15.6,7.7,15.6,17.8s-5.7,17.6-15.6,17.6H2.6v-2.2h10.9c8.6,0,13.3-6.7,13.3-15.4
		S22.1,3.6,13.6,3.6H2.6V1.4z"/>
	<g>
		<polygon class="st0" points="50.7,28.2 56.8,36.8 59.6,36.8 53.6,28.2 		"/>
		<path class="st0" d="M49.8,22.5c7.1-0.1,9.8-5.2,9.8-10.5S56.9,1.4,49.7,1.4h-13v2.2h13.1c5.2,0,7.5,4,7.5,8.4s-2.2,8.3-8,8.3
			H36.7v16.5H39V22.5L49.8,22.5L49.8,22.5z"/>
	</g>
	<g>
		<rect x="297.8" y="21.3" class="st0" width="2.3" height="15.4"/>
		<polygon class="st0" points="287.3,1.4 284.5,1.4 292.2,12.2 295,12.2 		"/>
		<polygon class="st0" points="313.5,1.4 310.7,1.4 303,12.2 305.7,12.2 		"/>
	</g>
	<g>
		<polygon class="st0" points="200.9,1.4 198.3,1.4 198.3,36.8 200.6,36.8 200.6,5.2 212.5,24.7 212.5,20.4 		"/>
		<rect x="220.6" y="1.4" class="st0" width="2.3" height="35.4"/>
	</g>
	<g>
		<polygon class="st0" points="234.5,18.3 234.5,36.8 236.8,36.8 236.8,20.6 250.3,20.6 250.3,18.3 		"/>
		<rect x="234.5" y="1.4" class="st0" width="19.4" height="2.2"/>
	</g>
	<g>
		<rect x="262.1" y="1.4" class="st0" width="2.3" height="21.1"/>
		<rect x="262.1" y="34.5" class="st0" width="17.9" height="2.3"/>
	</g>
	<g>
		<path class="st0" d="M138,24.5l12.8,12.3h-3.2l-11.1-10.5L138,24.5z M131.3,22.3v14.5h-2.4V1.6h2.4v17.5l14.2-17.5h2.9L131.3,22.3
			z"/>
	</g>
	<g>
		<g>
			<path class="st0" d="M156.9,19.1c-0.1-5.7,2.9-11,7.8-13.9V2.7c-6.3,3.1-10.2,9.4-10.1,16.4c-0.1,7,3.9,13.4,10.2,16.4V33
				C159.9,30.1,156.9,24.8,156.9,19.1z"/>
			<path class="st0" d="M189.1,19.1c0.1-7-3.9-13.3-10.2-16.4v2.5c4.9,2.9,7.9,8.2,7.9,13.9c0,5.7-3,11-7.9,13.8v2.5
				C185.2,32.4,189.1,26,189.1,19.1z"/>
		</g>
		<circle class="st0" cx="171.8" cy="19.1" r="3.4"/>
	</g>
	<polygon class="st0" points="80.1,1.4 77.6,1.4 68.8,24.4 69.8,24.4 69.8,24.4 75.3,24.4 75.3,22.1 72.1,22.1 78.8,4.5 91.1,36.8 
		93.5,36.8 	"/>
	<polygon class="st0" points="109.3,1.4 106.8,1.4 98,24.4 99,24.4 99,24.4 104.5,24.4 104.5,22.1 101.3,22.1 108,4.5 120.3,36.8 
		122.7,36.8 	"/>
</g>
</svg>
