<svg xmlns="http://www.w3.org/2000/svg" viewBox="0 0 428.87 38.2"><defs><style>.cls-1{fill:#fff;}</style></defs><title>dragonf-title</title><g id="Layer_2" data-name="Layer 2"><g id="assets_login"><path class="cls-1" d="M0,.58H13.87c10.39,0,16.36,8.06,16.36,18.6s-6,18.44-16.36,18.44H0ZM13.87,35.32c9,0,13.93-7,13.93-16.13S22.85,2.89,13.87,2.89H2.42V35.32Z"/><path class="cls-1" d="M51.9,22.68l10.55,15h-3l-10.56-15H41.52v15H39.06V.57h13.7C60.23.57,63.1,6.06,63.1,11.65s-2.86,11-10.49,11ZM41.52,20.36H52.28c6.07,0,8.38-4.14,8.38-8.71S58.3,2.89,52.81,2.89H41.52Z"/><path class="cls-1" d="M91.21,27.51h-18L69.31,37.63H66.74L80.94.57h2.59L97.61,37.63H95.09Zm-.8-2.15L82.24,3.86,74,25.36Z"/><path class="cls-1" d="M100.73,19.1a18.73,18.73,0,0,1,18.41-19h.25A18.2,18.2,0,0,1,130.69,4l-1.56,1.77a15.9,15.9,0,0,0-9.74-3.33A16.39,16.39,0,0,0,103.16,19v.14a16.35,16.35,0,0,0,16,16.66h.19c7.53,0,13.5-4.25,14.53-12.69l.06-.75H122.52V20.1h14.09c-.27,12.18-7.48,18-17.22,18a18.72,18.72,0,0,1-18.66-18.78Z"/><path class="cls-1" d="M141.45,19.1a18.66,18.66,0,1,1,37.32-.86c0,.28,0,.57,0,.86a18.67,18.67,0,1,1-37.32.87Q141.44,19.54,141.45,19.1Zm34.9,0A16.44,16.44,0,0,0,160.19,2.38h-.13A16.39,16.39,0,0,0,143.87,19.1a16.25,16.25,0,0,0,32.48.81Q176.37,19.51,176.35,19.1Z"/><path class="cls-1" d="M213.2.57V37.63h-2.69L189.86,4.58V37.63h-2.42V.57h2.74L210.77,33.7V.57Z"/><path class="cls-1" d="M227.08,2.87V18.25h14.19v2.37H227.08v17h-2.43V.56h20.28V2.87Z"/><path class="cls-1" d="M252.25.57h2.42V35.32H271v2.31h-18.7Z"/><path class="cls-1" d="M298.46.57,284.44,20V37.63H282V20L268.17.57h2.9l12.2,17.16L295.59.57Z"/><path class="cls-1" d="M312.7,19.15a18.88,18.88,0,0,1,18.73-19h.09a18.49,18.49,0,0,1,14.74,7.21l-5,3.76a11.86,11.86,0,0,0-9.62-4.84c-7,0-12.28,5.76-12.28,12.9S324.57,32,331.72,32a12,12,0,0,0,9.58-4.85l5,3.71a18.33,18.33,0,0,1-14.74,7.21A18.89,18.89,0,0,1,312.7,19.17Z"/><path class="cls-1" d="M352.5.57h6.56V37.63H352.5Z"/><path class="cls-1" d="M392.62,6.43H382v31.2h-6.59V6.43H364.87V.57h27.75Z"/><path class="cls-1" d="M428.87.57l-14.3,20.22V37.63H408V20.74L393.76.57h7.72L411.21,15,421.05.57Z"/></g></g></svg>