<?xml version="1.0" standalone="no"?>
<!DOCTYPE svg PUBLIC "-//W3C//DTD SVG 20010904//EN"
 "http://www.w3.org/TR/2001/REC-SVG-20010904/DTD/svg10.dtd">
<svg version="1.0" xmlns="http://www.w3.org/2000/svg"
 width="400.000000pt" height="400.000000pt" viewBox="0 0 400.000000 400.000000"
 preserveAspectRatio="xMidYMid meet">
<metadata>
Created by potrace 1.11, written by Peter Selinger 2001-2013
</metadata>
<g transform="translate(0.000000,400.000000) scale(0.100000,-0.100000)"
fill="#000000" stroke="none">
<path d="M2470 3868 c-211 -81 -612 -165 -1015 -213 -525 -62 -664 -90 -755
-152 -76 -53 -125 -122 -155 -218 -27 -88 -135 -603 -135 -644 0 -80 49 -156
107 -167 45 -8 78 7 165 79 164 135 328 209 543 246 75 13 487 62 491 59 1 -2
-38 -64 -87 -138 -278 -419 -522 -876 -714 -1336 -157 -376 -256 -744 -272
-1005 -5 -90 -4 -100 21 -155 40 -87 92 -134 149 -134 13 0 120 49 238 108
213 108 422 196 636 266 61 21 117 43 123 51 9 11 8 29 -4 78 -38 149 -10 471
71 810 l25 109 41 -69 c50 -83 201 -235 279 -281 91 -54 207 -100 297 -118
126 -25 317 -16 431 21 157 51 265 118 380 235 276 283 327 722 123 1069 -47
80 -167 208 -248 266 -81 58 -190 109 -290 136 -113 31 -338 32 -440 1 -38
-11 -71 -19 -73 -17 -4 4 50 112 164 325 160 301 243 552 220 673 -13 69 -117
158 -183 156 -15 0 -75 -19 -133 -41z m175 -18 c14 -16 17 -30 12 -72 -19
-154 -80 -314 -231 -598 -57 -107 -147 -281 -199 -385 -82 -166 -103 -199
-159 -255 -174 -178 -259 -393 -257 -650 1 -99 -4 -131 -30 -230 -101 -379
-146 -786 -107 -953 10 -43 11 -60 2 -62 -424 -148 -598 -220 -807 -336 -58
-33 -116 -59 -127 -59 -12 0 -32 10 -43 21 -20 20 -21 29 -16 118 21 356 173
817 466 1416 208 426 496 902 728 1204 36 46 57 80 46 76 -104 -45 -248 -72
-582 -110 -124 -14 -257 -33 -295 -41 -174 -36 -306 -97 -435 -201 -125 -101
-119 -97 -136 -83 -23 19 -19 49 40 335 60 287 79 349 125 411 82 113 192 146
675 204 415 49 651 89 900 151 115 29 314 92 345 110 26 15 66 10 85 -11z
m643 -1416 c40 -30 62 -81 62 -144 0 -62 -62 -437 -81 -490 -43 -120 -136
-190 -299 -226 -41 -9 -78 -19 -82 -23 -3 -3 -16 -60 -28 -126 -12 -66 -27
-125 -33 -132 -7 -7 -63 -21 -125 -31 -100 -17 -112 -17 -107 -4 11 30 195
1061 195 1095 l0 35 90 17 c50 10 104 15 121 11 19 -4 42 0 62 11 53 27 79 32
140 30 38 -2 66 -10 85 -23z m-658 -501 c-40 -230 -77 -423 -81 -429 -5 -6
-46 -19 -91 -29 -72 -15 -83 -16 -92 -3 -8 13 -18 10 -68 -15 -147 -73 -281
-30 -295 94 -3 28 14 150 46 335 28 160 51 306 51 326 l0 35 103 21 c118 26
133 27 139 10 3 -7 -19 -146 -49 -308 -29 -162 -52 -313 -51 -335 3 -38 5 -40
38 -43 19 -2 42 3 51 10 13 10 32 97 73 333 31 176 56 334 56 352 0 35 -12 30
185 72 22 4 44 4 49 0 5 -4 -23 -188 -64 -426z"/>
<path d="M3015 2288 c-3 -7 -27 -137 -53 -288 -53 -300 -53 -297 15 -263 62
30 70 51 108 270 40 233 42 254 17 276 -22 20 -81 23 -87 5z"/>
<path d="M3420 1253 c-30 -11 -70 -57 -76 -88 -13 -73 43 -135 123 -135 87 0
139 91 98 170 -25 48 -92 72 -145 53z m103 -42 c10 -10 21 -37 24 -59 5 -36 2
-45 -26 -73 -28 -27 -37 -31 -68 -26 -65 11 -98 68 -73 128 24 57 100 73 143
30z"/>
<path d="M3420 1141 c0 -34 4 -61 10 -61 6 0 10 11 10 25 0 16 6 25 15 25 9 0
20 -11 25 -25 16 -42 28 -28 26 33 l-1 57 -42 3 -43 3 0 -60z m60 24 c0 -8 -9
-15 -20 -15 -11 0 -20 7 -20 15 0 8 9 15 20 15 11 0 20 -7 20 -15z"/>
</g>
</svg>
