<?xml version="1.0" standalone="no"?>
<!DOCTYPE svg PUBLIC "-//W3C//DTD SVG 20010904//EN"
 "http://www.w3.org/TR/2001/REC-SVG-20010904/DTD/svg10.dtd">
<svg version="1.0" xmlns="http://www.w3.org/2000/svg"
 width="400.000000pt" height="400.000000pt" viewBox="0 0 400.000000 400.000000"
 preserveAspectRatio="xMidYMid meet">
<metadata>
Created by potrace 1.11, written by Peter Selinger 2001-2013
</metadata>
<g transform="translate(0.000000,400.000000) scale(0.100000,-0.100000)"
fill="#000000" stroke="none">
<path d="M1743 3820 c-4 -4 -30 -11 -58 -14 -27 -3 -68 -11 -90 -16 -22 -6
-49 -13 -60 -15 -11 -3 -45 -14 -75 -25 -30 -12 -63 -23 -73 -25 -40 -9 -267
-126 -341 -176 -44 -30 -86 -58 -95 -64 -8 -5 -20 -14 -27 -20 -6 -5 -33 -28
-60 -50 -71 -57 -203 -192 -266 -271 -195 -243 -341 -550 -382 -799 -3 -16 -8
-50 -12 -75 -17 -97 -10 -450 11 -550 10 -52 17 -90 16 -95 0 -2 6 -23 14 -45
8 -22 14 -41 13 -43 -3 -4 43 -142 53 -161 6 -10 12 -27 14 -37 10 -50 174
-351 225 -411 5 -7 33 -42 61 -78 114 -146 305 -321 428 -390 14 -8 28 -18 31
-21 8 -10 172 -99 182 -99 6 0 22 -6 36 -14 115 -59 281 -107 457 -131 98 -14
505 -17 505 -5 0 3 15 7 33 8 18 1 44 5 57 8 14 3 36 7 50 10 14 3 56 14 95
25 38 11 77 22 85 24 8 2 16 4 18 5 1 2 5 3 10 4 4 2 18 7 32 13 46 20 89 35
96 33 4 -1 10 2 13 7 3 4 40 25 81 46 275 139 520 358 686 612 47 73 168 305
159 305 -2 0 3 16 11 35 8 19 11 35 7 35 -5 0 -2 4 6 9 8 5 12 15 9 22 -9 24
-373 14 -423 -11 -3 -1 -9 -4 -15 -5 -5 -1 -12 -4 -15 -5 -3 -1 -8 -3 -12 -5
-67 -18 -155 -79 -233 -161 -194 -205 -287 -285 -385 -334 -16 -8 -33 -19 -37
-25 -4 -5 -8 -7 -8 -2 0 4 -12 1 -27 -6 -31 -16 -147 -57 -176 -63 -10 -2 -26
-5 -35 -8 -9 -3 -35 -8 -57 -12 -22 -3 -60 -10 -85 -14 -50 -10 -328 -6 -375
5 -16 4 -39 8 -50 10 -11 2 -38 8 -60 14 -22 5 -40 10 -40 10 0 0 -34 11 -95
32 -73 25 -240 108 -240 119 0 4 -11 11 -25 14 -14 4 -25 11 -25 16 0 6 -5 10
-10 10 -15 0 -63 42 -165 145 -90 90 -187 222 -221 303 -10 23 -22 42 -27 42
-4 0 -5 5 -2 10 4 6 2 16 -3 23 -11 13 -50 127 -57 167 -3 14 -7 36 -10 50 -3
14 -7 37 -10 51 l-5 26 1505 0 c828 0 1509 4 1513 8 4 3 8 95 8 203 1 150 -3
222 -17 302 -25 146 -28 162 -39 190 -5 14 -11 34 -13 45 -4 22 -5 23 -50 140
-100 262 -290 525 -512 710 -33 28 -62 53 -65 56 -6 7 -124 90 -148 104 -10 5
-29 17 -44 27 -48 32 -221 115 -303 146 -119 45 -286 91 -351 96 -16 1 -34 4
-39 8 -15 9 -462 7 -472 -2z m447 -564 c14 -2 27 -5 30 -6 3 -1 9 -2 14 -1 5
1 16 -1 25 -5 9 -4 27 -9 41 -11 32 -4 167 -48 217 -70 21 -9 41 -16 46 -15 4
1 7 -2 7 -8 0 -5 6 -10 14 -10 8 0 63 -33 122 -73 230 -153 401 -377 489 -641
14 -44 24 -84 22 -90 -6 -14 -2433 -15 -2431 -1 5 39 40 155 47 155 4 0 6 4 3
8 -3 5 1 20 9 35 8 15 12 27 10 27 -3 0 9 23 25 50 17 28 30 53 30 55 0 8 85
128 115 163 111 129 256 243 397 314 95 48 259 104 333 115 22 3 58 9 80 13
37 7 299 4 355 -4z"/>
</g>
</svg>
