<svg height="440pt" preserveAspectRatio="xMidYMid meet" viewBox="0 0 440 440" width="440pt" xmlns="http://www.w3.org/2000/svg"><g transform="matrix(.1 0 0 -.1 0 440)"><path d="m3355 4269c0-109 0-110-60-85-33 14-159 52-208 62-143 31-240 47-367 60-46 5-417 5-455 0-16-2-57-7-90-11-545-62-1022-291-1370-657-290-305-489-711-551-1128-3-19-7-46-10-60-15-94-24-409-14-530 69-830 553-1477 1320-1763 143-54 347-105 488-123 20-2 48-7 62-9 36-7 252-19 340-19 231 0 458 24 665 71 61 13 119 26 129 28 56 12 285 94 383 136 139 61 237 113 368 195l100 62 3 953c1 579-2 955-7 959-5 3-236 5-514 5h-504l-194-199c-107-109-276-283-376-385-99-102-177-188-173-191 5-3 158-5 340-5s335-2 341-5c6-4 8-121 7-300l-3-295-105-35c-58-20-123-38-145-40-65-8-336-5-385 3-155 27-339 101-453 183-26 19-50 34-53 34s-98-92-210-204c-240-240-238-238-225-205 5 13 60 155 123 314l114 291-38 59c-138 218-212 481-212 755 0 85 9 192 20 240 3 14 8 39 10 55 3 17 19 71 36 120 112 333 369 586 688 678 111 32 152 38 290 42 146 4 282-16 413-59 34-11 46-10 125 17 308 102 764 248 767 245 2-3-152-199-233-297-44-52-56-71-45-71 5 0 102 34 217 75 115 42 210 74 212 72s-68-78-155-168l-160-164 197-3c108-1 202 0 208 2 8 3 11 184 11 699v695h-331l-332-1z"/><path d="m4060 4348c-11-12-21-25-21-30-1-4-2-14-3-20-4-23 23-66 46-74 58-20 107 13 108 72 0 66-84 101-130 52zm108-15c26-36 7-88-24-63-11 10-11 16-3 26 17 21 3 44-28 44-26 0-28-3-28-45 0-28 4-45 11-45 8 0 10 9 6 22-5 22-5 22 25-2 35-29 33-40-8-40-61 0-90 69-46 110 25 25 74 21 95-7zm-35-18c1-5-6-11-15-13-11-2-18 3-18 13 0 17 30 18 33 0z"/><path d="m2938 3184-616-205-109-167c-61-92-171-260-246-374l-136-208 62 24c34 13 99 38 145 56 46 17 85 30 86 28 2-2-329-846-355-903-22-50-149-377-149-385 0-5 12 3 28 19 15 16 137 142 272 281s278 287 319 329c40 42 187 193 327 336 139 143 288 296 331 341 128 132 572 589 664 685 48 49 84 89 80 89s-86-27-182-61c-222-78-214-75-204-58 5 8 76 94 158 192 82 99 147 180 145 182s-281-88-620-201z"/></g></svg>