<?xml version="1.0" standalone="no"?>
<!DOCTYPE svg PUBLIC "-//W3C//DTD SVG 20010904//EN"
 "http://www.w3.org/TR/2001/REC-SVG-20010904/DTD/svg10.dtd">
<svg version="1.0" xmlns="http://www.w3.org/2000/svg"
 width="400.000000pt" height="400.000000pt" viewBox="0 0 400.000000 400.000000"
 preserveAspectRatio="xMidYMid meet">
<metadata>
Created by potrace 1.11, written by Peter Selinger 2001-2013
</metadata>
<g transform="translate(0.000000,400.000000) scale(0.100000,-0.100000)"
fill="#000000" stroke="none">
<path d="M2200 3489 c-387 -35 -763 -184 -1100 -435 -116 -87 -322 -282 -403
-382 -29 -35 -89 -91 -133 -123 -45 -32 -84 -65 -87 -72 -3 -7 -8 -44 -12 -80
-4 -37 -11 -67 -15 -67 -4 0 -15 18 -25 40 -10 23 -22 43 -27 46 -15 9 -197
-134 -202 -159 -8 -35 -106 -800 -103 -803 1 -1 61 41 132 94 l130 97 12 85
c6 47 12 87 13 90 2 11 44 -77 62 -134 73 -227 308 -438 606 -546 70 -26 68
-21 47 -132 -8 -42 -16 -91 -19 -110 -2 -18 -7 -56 -11 -85 -7 -47 -5 -54 18
-77 20 -20 36 -26 72 -26 33 0 45 4 45 15 0 7 5 37 11 65 10 47 13 50 41 50
l31 0 -7 -50 c-4 -28 -9 -57 -12 -65 -5 -12 4 -15 49 -15 44 0 61 5 84 24 l29
25 68 -105 c72 -111 105 -142 160 -151 40 -6 102 12 110 32 8 21 -4 45 -22 45
-20 0 -81 65 -111 119 l-23 43 23 -15 c82 -51 219 -8 255 79 18 43 39 45 30 4
-7 -40 10 -76 44 -90 20 -8 137 -10 411 -7 365 4 386 5 425 25 76 39 134 124
134 199 0 29 3 34 12 25 21 -21 66 -14 84 13 15 24 12 65 -6 65 -5 0 -1 14 8
30 16 28 16 32 0 61 -10 17 -18 41 -18 53 0 12 -6 30 -14 41 -7 11 -14 33 -14
50 0 17 -7 35 -19 44 -18 14 -15 19 66 92 241 217 455 515 571 796 l49 118 38
0 c21 0 59 -4 85 -7 l46 -7 6 67 c5 57 58 384 73 448 4 18 -6 25 -64 51 -37
17 -92 36 -122 43 -61 14 -206 9 -239 -9 -12 -7 -22 -10 -22 -8 0 2 7 50 15
107 9 56 14 104 12 106 -2 2 -63 7 -136 10 -142 8 -151 5 -151 -43 0 -21 -4
-19 -84 23 -47 25 -122 58 -167 75 -91 33 -309 89 -348 89 l-24 0 6 109 6 108
-97 6 c-112 8 -164 7 -282 -4z m268 -375 c65 -45 -18 -151 -103 -130 -52 13
-40 101 18 130 40 20 57 20 85 0z m928 -48 c3 -8 -15 -126 -40 -263 -26 -136
-46 -262 -46 -280 0 -48 -9 -63 -40 -63 -57 0 -90 12 -90 32 0 19 -1 18 -32
-3 -43 -31 -122 -36 -168 -11 -75 40 -99 148 -60 273 37 122 116 181 241 183
76 0 69 -8 85 91 4 22 9 43 11 48 2 4 33 7 69 7 46 0 66 -4 70 -14z m-518
-137 c27 -9 33 -16 28 -33 -10 -46 -55 -304 -61 -358 l-6 -58 -65 0 c-59 0
-64 2 -64 22 l0 21 -23 -21 c-45 -42 -117 -52 -174 -25 -54 25 -77 86 -70 179
14 191 139 301 327 289 41 -2 90 -9 108 -16z m-423 -21 c-2 -13 -23 -126 -45
-253 -49 -286 -61 -325 -105 -363 -43 -38 -121 -56 -188 -43 -26 5 -51 11 -54
15 -4 3 4 29 17 57 23 48 25 50 57 44 38 -7 69 7 78 34 3 11 25 128 49 261 24
132 46 243 50 247 3 3 34 9 68 13 35 4 66 8 71 9 4 0 5 -9 2 -21z m-271 -9
c50 -23 53 -55 22 -243 -16 -94 -32 -180 -37 -192 -6 -16 -21 -23 -75 -32 -38
-6 -69 -10 -71 -8 -2 1 8 66 22 145 29 166 31 199 9 208 -22 8 -61 -16 -73
-46 -6 -14 -22 -93 -36 -176 -15 -82 -27 -150 -28 -151 -5 -4 -140 -25 -142
-22 -2 2 12 91 31 198 19 107 34 211 34 231 l0 37 57 7 c46 6 58 4 65 -9 8
-14 13 -13 44 10 62 48 131 64 178 43z m1571 -39 c33 -13 63 -25 67 -29 3 -3
-6 -73 -22 -156 -15 -82 -31 -178 -35 -211 -5 -50 -10 -61 -23 -58 -10 1 -38
6 -64 9 -38 5 -48 10 -48 25 0 17 -1 17 -37 -1 -49 -25 -89 -24 -143 4 -63 31
-85 79 -84 177 1 138 59 223 174 261 40 14 150 2 215 -21z m-1996 -207 c-15
-93 -31 -195 -36 -227 l-8 -60 -57 -17 c-58 -17 -58 -17 -58 4 0 19 -3 18 -32
-10 -91 -86 -202 -85 -224 2 -4 15 -4 63 -2 108 12 211 170 364 379 366 l66 1
-28 -167z m-359 80 c0 -5 -8 -34 -18 -66 -16 -54 -21 -60 -56 -72 -76 -26 -85
-44 -116 -229 -15 -92 -29 -168 -31 -170 -6 -4 -134 -54 -135 -53 -1 1 14 97
32 212 18 116 33 224 34 240 0 27 6 32 55 52 l55 21 0 -30 0 -31 29 39 c15 21
37 47 48 57 29 26 103 47 103 30z m-352 -175 c-3 -18 -15 -109 -27 -203 -13
-93 -25 -185 -27 -203 -4 -27 -13 -36 -54 -57 -58 -30 -60 -30 -60 -9 0 10
-18 -4 -45 -34 -51 -57 -112 -87 -149 -73 -67 26 -59 223 16 363 61 115 151
192 266 229 81 25 85 25 80 -13z m-432 -327 l-42 -324 -49 -38 c-28 -21 -54
-39 -58 -39 -5 0 -33 53 -64 118 -65 137 -59 144 -89 -97 l-18 -152 -51 -38
c-71 -53 -73 -54 -69 -28 2 12 20 146 39 297 19 151 37 289 40 305 4 22 19 41
55 68 27 20 54 37 58 37 5 0 33 -52 63 -115 29 -63 54 -113 56 -111 2 2 14 83
27 181 16 122 27 180 37 185 8 5 34 24 59 43 25 19 46 34 47 33 1 -1 -17 -147
-41 -325z m1724 -128 c-18 -32 -40 -68 -48 -80 -14 -22 -13 -23 22 -23 37 0
47 -15 24 -38 -11 -11 -138 -18 -138 -7 0 2 20 38 45 80 l44 75 -34 0 c-27 0
-35 4 -35 18 0 29 8 32 83 32 l69 0 -32 -57z m177 -43 c28 -118 28 -110 -1
-110 -16 0 -27 7 -31 20 -4 13 -15 20 -33 20 -16 0 -32 -8 -40 -20 -12 -20
-37 -27 -45 -12 -3 4 9 43 27 87 18 44 35 88 39 98 5 13 15 17 34 15 26 -3 29
-8 50 -98z m138 90 c54 -12 75 -41 75 -100 0 -81 -54 -121 -139 -104 l-33 7 7
96 c4 53 9 99 12 104 6 9 29 9 78 -3z m-465 -39 c0 -21 -3 -66 -6 -99 -5 -49
-11 -63 -26 -68 -11 -3 -22 -4 -25 -1 -2 3 -2 51 2 106 7 98 8 101 31 101 21
0 24 -5 24 -39z m-136 7 c-2 -13 -5 -49 -8 -81 l-5 -59 35 6 c29 6 34 4 34
-13 0 -25 -4 -27 -68 -36 l-53 -7 7 98 c3 55 9 102 11 107 2 4 15 7 27 7 18 0
23 -5 20 -22z m827 -68 c32 -138 32 -130 3 -130 -17 0 -28 7 -31 20 -3 11 -11
20 -18 20 -8 0 -20 3 -28 6 -9 3 -16 -3 -20 -15 -5 -20 -36 -29 -49 -15 -5 5
8 43 58 162 11 28 18 33 41 30 25 -3 29 -9 44 -78z m-934 -22 c12 -51 19 -96
16 -100 -8 -14 -43 -8 -49 7 -10 25 -53 18 -64 -10 -9 -24 -50 -37 -50 -16 0
12 56 166 70 192 6 10 21 19 34 19 20 0 25 -9 43 -92z m-169 18 c2 -16 -2 -40
-9 -53 -10 -19 -10 -29 5 -59 19 -41 20 -39 -15 -47 -23 -6 -27 -3 -39 33 -17
53 -30 51 -30 -4 0 -36 -4 -46 -21 -51 -11 -4 -23 -5 -25 -2 -3 3 -2 49 2 102
8 109 13 116 89 112 36 -2 40 -5 43 -31z m-150 -13 c-2 -10 -18 -24 -36 -32
-39 -18 -44 -45 -6 -35 22 6 25 4 22 -12 -2 -10 -16 -25 -31 -32 -15 -7 -27
-21 -27 -32 0 -17 3 -18 31 -8 16 6 32 8 35 5 14 -14 -20 -44 -65 -59 l-51
-16 0 42 c0 24 3 70 6 103 l7 60 46 16 c62 20 73 20 69 0z m-154 -120 c-10
-131 -32 -156 -76 -85 l-23 37 -3 -45 c-4 -47 -16 -70 -38 -70 -11 0 -12 17
-7 83 10 135 31 160 75 90 l23 -38 6 47 c8 55 15 68 35 68 12 0 13 -15 8 -87z
m-168 -20 c-3 -21 -8 -65 -11 -97 -6 -60 -18 -86 -39 -86 -19 0 0 192 21 208
27 20 34 14 29 -25z m-88 -99 c-3 -89 -5 -98 -27 -112 l-23 -16 7 52 c8 61 2
67 -16 15 -18 -56 -42 -69 -55 -30 -6 17 -9 11 -15 -32 -6 -49 -19 -70 -42
-71 -5 0 -6 8 -3 18 3 9 8 54 12 99 3 46 12 87 18 92 26 21 39 15 50 -24 l12
-40 18 50 c46 125 68 125 64 -1z m782 -54 c25 -49 25 -80 0 -127 -34 -65 -29
-69 63 -44 26 8 50 18 53 23 8 13 -66 -1 -93 -18 -29 -18 -29 -7 -1 23 17 18
32 23 70 23 58 0 63 -16 17 -54 -24 -20 -42 -26 -82 -27 -136 -2 -185 10 -207
50 -15 30 -14 31 36 31 55 0 79 -12 98 -48 24 -43 20 1 -4 48 -11 22 -20 46
-20 54 0 14 41 106 47 106 1 0 12 -18 23 -40z m-522 -348 l2 -173 -28 -29
c-43 -42 -104 -56 -158 -35 -53 20 -74 51 -74 110 0 43 1 45 28 45 35 0 59
-25 64 -65 3 -26 7 -30 33 -30 l30 0 3 178 2 178 48 -3 47 -3 3 -173z m1286
156 c-4 -7 -34 -52 -66 -100 -32 -48 -58 -91 -58 -95 0 -4 27 -48 60 -98 l60
-90 -42 -3 c-63 -5 -81 3 -112 53 l-29 45 -34 -50 c-32 -48 -36 -50 -79 -50
-51 0 -53 -9 20 104 l44 70 -49 73 c-71 104 -71 103 -10 103 53 0 82 -17 109
-65 6 -11 12 -18 15 -15 2 3 23 33 46 68 41 61 43 62 87 62 33 0 43 -3 38 -12z
m-1181 -56 c13 -14 17 -45 19 -147 l3 -130 28 -3 27 -3 0 150 0 151 50 0 50 0
0 -144 c0 -141 -1 -145 -26 -175 -49 -59 -152 -62 -205 -5 -23 24 -24 33 -27
175 l-3 149 34 0 c20 0 41 -7 50 -18z m329 1 c9 -10 26 -46 38 -81 13 -35 26
-59 30 -55 4 4 15 33 25 63 23 73 39 90 87 90 21 0 38 -4 38 -10 0 -14 50
-302 56 -322 4 -14 -1 -18 -25 -18 -63 0 -84 27 -96 123 -4 31 -11 59 -15 62
-4 3 -23 -39 -43 -93 -20 -57 -40 -97 -48 -97 -8 0 -28 38 -47 90 -18 50 -37
94 -42 99 -5 5 -12 -8 -15 -30 -24 -135 -29 -149 -58 -152 -17 -2 -27 1 -27
10 0 7 12 86 27 176 l28 162 36 0 c22 0 42 -7 51 -17z m488 -7 c0 -23 -4 -25
-52 -28 l-53 -3 -3 -47 -3 -48 55 0 c49 0 56 -2 56 -20 0 -20 -16 -27 -75 -32
-28 -3 -30 -5 -30 -48 l0 -45 53 -3 c48 -3 52 -5 52 -28 0 -24 -1 -24 -88 -24
-55 0 -92 4 -100 12 -8 8 -12 58 -12 159 0 182 -2 179 116 179 82 0 84 0 84
-24z m560 -199 c0 -19 -10 -27 -26 -20 -21 8 -17 33 6 33 11 0 20 -6 20 -13z
m-84 -56 c-9 -10 -16 -30 -16 -44 0 -15 -4 -27 -9 -27 -5 0 -15 -2 -23 -5 -8
-3 -21 7 -31 24 l-17 29 48 35 c39 29 48 33 55 21 6 -10 3 -22 -7 -33z m98
-17 c9 -8 16 -22 16 -29 0 -7 -7 -21 -16 -29 -30 -30 -74 -13 -74 29 0 42 44
59 74 29z m-34 -114 c15 -28 12 -55 -10 -83 -12 -15 -20 -40 -20 -61 0 -73
-55 -155 -125 -187 -125 -57 -256 19 -241 140 14 109 108 191 218 191 31 0 60
5 63 11 21 32 96 25 115 -11z m80 5 c0 -21 -19 -28 -36 -15 -10 9 -11 16 -3
26 12 15 39 8 39 -11z m-677 -48 c-3 -18 -37 -75 -75 -127 l-69 -95 45 -3 46
-3 -27 -40 -26 -39 -84 0 -85 0 7 32 c4 18 41 76 82 130 l74 98 -37 0 -36 0 7
37 c4 21 8 40 10 43 2 3 42 4 89 2 l85 -3 -6 -32z m254 29 c-3 -8 -44 -67 -92
-131 -47 -63 -85 -117 -85 -120 0 -3 24 -5 53 -5 49 -1 53 -3 79 -40 l28 -40
-161 0 c-126 0 -159 3 -153 13 5 6 48 66 97 132 l88 120 -40 3 c-43 3 -48 11
-35 58 5 19 13 21 116 23 95 2 110 0 105 -13z m-1257 -13 c-1 -54 -10 -63 -66
-63 -53 0 -54 0 -54 -30 0 -29 2 -30 45 -30 41 0 45 -2 45 -24 0 -47 -9 -56
-60 -56 -53 0 -49 6 -66 -92 -7 -43 -28 -49 -64 -20 l-22 18 27 157 28 157 94
0 c82 0 93 -2 93 -17z m239 -7 c49 -44 25 -159 -40 -188 -16 -7 -29 -16 -29
-20 0 -11 149 -240 172 -265 12 -13 30 -25 40 -29 31 -9 9 -24 -36 -24 -28 0
-52 7 -69 20 -14 11 -65 81 -113 157 l-88 136 -11 -42 c-5 -24 -19 -49 -29
-57 -24 -17 -66 -18 -66 -1 0 6 14 84 30 172 16 88 30 162 30 163 0 2 42 2 94
0 75 -2 98 -7 115 -22z m150 10 c10 -11 8 -38 -5 -118 -20 -116 -16 -138 21
-138 32 0 40 18 64 144 20 107 33 126 83 126 33 0 33 6 4 -143 -14 -71 -31
-129 -43 -145 -31 -42 -80 -64 -136 -59 -65 6 -100 39 -99 95 1 36 27 208 37
240 6 17 60 15 74 -2z m421 5 c0 -5 -3 -23 -6 -40 -5 -26 -11 -31 -34 -31 -27
0 -28 -1 -49 -113 -11 -63 -21 -121 -21 -130 0 -13 -9 -17 -35 -17 -53 0 -57
19 -35 145 11 60 20 110 20 112 0 2 -14 3 -31 3 -28 0 -31 3 -25 23 3 12 6 30
6 40 0 15 12 17 105 17 58 0 105 -4 105 -9z m858 -53 c18 -18 14 -46 -9 -58
-26 -14 -49 3 -49 35 0 32 35 46 58 23z m-1428 -229 c0 -6 -4 -7 -10 -4 -5 3
-10 11 -10 16 0 6 5 7 10 4 6 -3 10 -11 10 -16z"/>
<path d="M3133 2815 c-56 -24 -99 -152 -74 -217 13 -34 52 -46 84 -25 19 12
27 34 44 128 12 63 19 117 17 121 -7 12 -35 9 -71 -7z"/>
<path d="M2673 2834 c-40 -20 -70 -79 -79 -156 -8 -67 11 -108 49 -108 47 0
59 21 82 146 13 65 22 120 22 120 -14 11 -49 10 -74 -2z"/>
<path d="M3583 2778 c-48 -23 -89 -169 -63 -219 16 -30 29 -39 56 -39 36 0 52
31 72 143 19 104 19 108 1 117 -22 12 -38 12 -66 -2z"/>
<path d="M1564 2681 c-39 -24 -73 -101 -80 -184 -8 -82 8 -107 55 -87 41 17
49 33 67 138 8 48 17 102 20 120 4 26 2 32 -13 32 -10 0 -32 -9 -49 -19z"/>
<path d="M868 2423 c-49 -30 -98 -155 -98 -248 0 -58 52 -69 85 -18 13 20 54
225 55 276 0 11 -12 8 -42 -10z"/>
<path d="M2446 2064 c-10 -25 -7 -34 9 -34 9 0 15 9 15 25 0 28 -15 34 -24 9z"/>
<path d="M2620 2073 c0 -21 -3 -48 -6 -60 -5 -20 -2 -23 19 -23 44 0 65 71 31
104 -27 28 -44 20 -44 -21z"/>
<path d="M2816 2037 c-9 -33 -8 -37 9 -37 9 0 15 9 15 24 0 33 -16 42 -24 13z"/>
<path d="M1880 2024 c-13 -33 -13 -34 5 -34 10 0 15 10 15 30 0 37 -7 38 -20
4z"/>
<path d="M1706 2033 c-3 -3 -6 -20 -6 -36 0 -25 2 -28 15 -17 8 7 15 21 15 31
0 19 -13 32 -24 22z"/>
<path d="M1970 1675 c0 -49 3 -65 10 -55 5 8 10 33 10 55 0 22 -5 47 -10 55
-7 10 -10 -6 -10 -55z"/>
<path d="M1830 1599 c0 -5 6 -11 13 -13 6 -2 34 -11 60 -19 32 -10 47 -11 44
-3 -2 6 -17 15 -33 19 -16 5 -41 12 -56 17 -17 5 -28 4 -28 -1z"/>
<path d="M2689 1005 c-31 -17 -63 -87 -53 -119 11 -38 35 -56 73 -56 62 0 111
53 111 120 0 61 -68 89 -131 55z"/>
<path d="M1436 979 c-10 -53 -8 -59 22 -59 49 0 86 68 46 84 -39 15 -61 7 -68
-25z"/>
<path d="M2967 1023 c-10 -10 -8 -41 3 -48 6 -3 17 0 25 9 22 22 18 32 -5 11
-19 -18 -20 -17 -20 3 0 11 6 23 13 25 6 3 7 6 1 6 -6 1 -14 -2 -17 -6z"/>
</g>
</svg>
